<svg width="30" height="14" viewBox="0 0 30 14" fill="none" xmlns="http://www.w3.org/2000/svg">
<g filter="url(#filter0_d_16_10)">
<path d="M1 6L11 11.7735V0.226497L1 6ZM9.99869 7C10.01 7 10.0213 7 10.0326 7C10.0439 7 10.0552 7 10.0665 7C10.0778 7 10.0891 7 10.1004 7C10.1118 7 10.1231 7 10.1344 7C10.1458 7 10.1571 7 10.1684 7C10.1798 7 10.1912 7 10.2025 7C10.2139 7 10.2252 7 10.2366 7C10.248 7 10.2594 7 10.2708 7C10.2821 7 10.2935 7 10.3049 7C10.3163 7 10.3277 7 10.3392 7C10.3506 7 10.362 7 10.3734 7C10.3848 7 10.3963 7 10.4077 7C10.4191 7 10.4306 7 10.442 7C10.4535 7 10.4649 7 10.4764 7C10.4878 7 10.4993 7 10.5108 7C10.5223 7 10.5337 7 10.5452 7C10.5567 7 10.5682 7 10.5797 7C10.5912 7 10.6027 7 10.6142 7C10.6257 7 10.6372 7 10.6488 7C10.6603 7 10.6718 7 10.6833 7C10.6949 7 10.7064 7 10.718 7C10.7295 7 10.741 7 10.7526 7C10.7642 7 10.7757 7 10.7873 7C10.7989 7 10.8104 7 10.822 7C10.8336 7 10.8452 7 10.8568 7C10.8684 7 10.88 7 10.8916 7C10.9032 7 10.9148 7 10.9264 7C10.938 7 10.9496 7 10.9613 7C10.9729 7 10.9845 7 10.9962 7C11.0078 7 11.0194 7 11.0311 7C11.0427 7 11.0544 7 11.0661 7C11.0777 7 11.0894 7 11.1011 7C11.1127 7 11.1244 7 11.1361 7C11.1478 7 11.1595 7 11.1712 7C11.1829 7 11.1946 7 11.2063 7C11.218 7 11.2297 7 11.2414 7C11.2531 7 11.2648 7 11.2766 7C11.2883 7 11.3 7 11.3118 7C11.3235 7 11.3352 7 11.347 7C11.3587 7 11.3705 7 11.3823 7C11.394 7 11.4058 7 11.4176 7C11.4293 7 11.4411 7 11.4529 7C11.4647 7 11.4765 7 11.4883 7C11.5001 7 11.5118 7 11.5237 7C11.5355 7 11.5473 7 11.5591 7C11.5709 7 11.5827 7 11.5945 7C11.6064 7 11.6182 7 11.63 7C11.6419 7 11.6537 7 11.6656 7C11.6774 7 11.6893 7 11.7011 7C11.713 7 11.7248 7 11.7367 7C11.7486 7 11.7604 7 11.7723 7C11.7842 7 11.7961 7 11.808 7C11.8199 7 11.8317 7 11.8436 7C11.8555 7 11.8674 7 11.8794 7C11.8913 7 11.9032 7 11.9151 7C11.927 7 11.9389 7 11.9509 7C11.9628 7 11.9747 7 11.9867 7C11.9986 7 12.0105 7 12.0225 7C12.0344 7 12.0464 7 12.0584 7C12.0703 7 12.0823 7 12.0943 7C12.1062 7 12.1182 7 12.1302 7C12.1421 7 12.1541 7 12.1661 7C12.1781 7 12.1901 7 12.2021 7C12.2141 7 12.2261 7 12.2381 7C12.2501 7 12.2621 7 12.2741 7C12.2862 7 12.2982 7 12.3102 7C12.3222 7 12.3343 7 12.3463 7C12.3583 7 12.3704 7 12.3824 7C12.3945 7 12.4065 7 12.4186 7C12.4306 7 12.4427 7 12.4548 7C12.4668 7 12.4789 7 12.491 7C12.503 7 12.5151 7 12.5272 7C12.5393 7 12.5514 7 12.5635 7C12.5756 7 12.5877 7 12.5998 7C12.6119 7 12.624 7 12.6361 7C12.6482 7 12.6603 7 12.6724 7C12.6845 7 12.6967 7 12.7088 7C12.7209 7 12.7331 7 12.7452 7C12.7573 7 12.7695 7 12.7816 7C12.7938 7 12.8059 7 12.8181 7C12.8302 7 12.8424 7 12.8546 7C12.8667 7 12.8789 7 12.8911 7C12.9032 7 12.9154 7 12.9276 7C12.9398 7 12.952 7 12.9642 7C12.9763 7 12.9885 7 13.0007 7C13.0129 7 13.0251 7 13.0374 7C13.0496 7 13.0618 7 13.074 7C13.0862 7 13.0984 7 13.1107 7C13.1229 7 13.1351 7 13.1473 7C13.1596 7 13.1718 7 13.1841 7C13.1963 7 13.2085 7 13.2208 7C13.233 7 13.2453 7 13.2576 7C13.2698 7 13.2821 7 13.2943 7C13.3066 7 13.3189 7 13.3312 7C13.3434 7 13.3557 7 13.368 7C13.3803 7 13.3926 7 13.4048 7C13.4171 7 13.4294 7 13.4417 7C13.454 7 13.4663 7 13.4786 7C13.4909 7 13.5033 7 13.5156 7C13.5279 7 13.5402 7 13.5525 7C13.5649 7 13.5772 7 13.5895 7C13.6018 7 13.6142 7 13.6265 7C13.6388 7 13.6512 7 13.6635 7C13.6759 7 13.6882 7 13.7006 7C13.7129 7 13.7253 7 13.7377 7C13.75 7 13.7624 7 13.7748 7C13.7871 7 13.7995 7 13.8119 7C13.8242 7 13.8366 7 13.849 7C13.8614 7 13.8738 7 13.8862 7C13.8986 7 13.911 7 13.9234 7C13.9358 7 13.9482 7 13.9606 7C13.973 7 13.9854 7 13.9978 7C14.0102 7 14.0226 7 14.035 7C14.0475 7 14.0599 7 14.0723 7C14.0847 7 14.0972 7 14.1096 7C14.122 7 14.1345 7 14.1469 7C14.1594 7 14.1718 7 14.1843 7C14.1967 7 14.2092 7 14.2216 7C14.2341 7 14.2465 7 14.259 7C14.2714 7 14.2839 7 14.2964 7C14.3088 7 14.3213 7 14.3338 7C14.3463 7 14.3588 7 14.3712 7C14.3837 7 14.3962 7 14.4087 7C14.4212 7 14.4337 7 14.4462 7C14.4587 7 14.4712 7 14.4837 7C14.4962 7 14.5087 7 14.5212 7C14.5337 7 14.5462 7 14.5587 7C14.5712 7 14.5838 7 14.5963 7C14.6088 7 14.6213 7 14.6339 7C14.6464 7 14.6589 7 14.6714 7C14.684 7 14.6965 7 14.7091 7C14.7216 7 14.7341 7 14.7467 7C14.7592 7 14.7718 7 14.7843 7C14.7969 7 14.8095 7 14.822 7C14.8346 7 14.8471 7 14.8597 7C14.8723 7 14.8848 7 14.8974 7C14.91 7 14.9226 7 14.9351 7C14.9477 7 14.9603 7 14.9729 7C14.9855 7 14.998 7 15.0106 7C15.0232 7 15.0358 7 15.0484 7C15.061 7 15.0736 7 15.0862 7C15.0988 7 15.1114 7 15.124 7C15.1366 7 15.1492 7 15.1618 7C15.1745 7 15.1871 7 15.1997 7C15.2123 7 15.2249 7 15.2376 7C15.2502 7 15.2628 7 15.2754 7C15.2881 7 15.3007 7 15.3133 7C15.326 7 15.3386 7 15.3512 7C15.3639 7 15.3765 7 15.3892 7C15.4018 7 15.4145 7 15.4271 7C15.4398 7 15.4524 7 15.4651 7C15.4777 7 15.4904 7 15.503 7C15.5157 7 15.5284 7 15.541 7C15.5537 7 15.5664 7 15.579 7C15.5917 7 15.6044 7 15.6171 7C15.6297 7 15.6424 7 15.6551 7C15.6678 7 15.6805 7 15.6932 7C15.7058 7 15.7185 7 15.7312 7C15.7439 7 15.7566 7 15.7693 7C15.782 7 15.7947 7 15.8074 7C15.8201 7 15.8328 7 15.8455 7C15.8582 7 15.8709 7 15.8836 7C15.8963 7 15.9091 7 15.9218 7C15.9345 7 15.9472 7 15.9599 7C15.9726 7 15.9854 7 15.9981 7C16.0108 7 16.0235 7 16.0363 7C16.049 7 16.0617 7 16.0745 7C16.0872 7 16.0999 7 16.1127 7C16.1254 7 16.1382 7 16.1509 7C16.1636 7 16.1764 7 16.1891 7C16.2019 7 16.2146 7 16.2274 7C16.2401 7 16.2529 7 16.2656 7C16.2784 7 16.2911 7 16.3039 7C16.3167 7 16.3294 7 16.3422 7C16.3549 7 16.3677 7 16.3805 7C16.3932 7 16.406 7 16.4188 7C16.4316 7 16.4443 7 16.4571 7C16.4699 7 16.4827 7 16.4954 7C16.5082 7 16.521 7 16.5338 7C16.5466 7 16.5593 7 16.5721 7C16.5849 7 16.5977 7 16.6105 7C16.6233 7 16.6361 7 16.6489 7C16.6617 7 16.6745 7 16.6873 7C16.7001 7 16.7129 7 16.7257 7C16.7385 7 16.7513 7 16.7641 7C16.7769 7 16.7897 7 16.8025 7C16.8153 7 16.8281 7 16.8409 7C16.8537 7 16.8665 7 16.8794 7C16.8922 7 16.905 7 16.9178 7C16.9306 7 16.9434 7 16.9563 7C16.9691 7 16.9819 7 16.9947 7C17.0076 7 17.0204 7 17.0332 7C17.046 7 17.0589 7 17.0717 7C17.0845 7 17.0974 7 17.1102 7C17.123 7 17.1359 7 17.1487 7C17.1616 7 17.1744 7 17.1872 7C17.2001 7 17.2129 7 17.2258 7C17.2386 7 17.2514 7 17.2643 7C17.2771 7 17.29 7 17.3028 7C17.3157 7 17.3285 7 17.3414 7C17.3542 7 17.3671 7 17.3799 7C17.3928 7 17.4057 7 17.4185 7C17.4314 7 17.4442 7 17.4571 7C17.4699 7 17.4828 7 17.4957 7C17.5085 7 17.5214 7 17.5343 7C17.5471 7 17.56 7 17.5729 7C17.5857 7 17.5986 7 17.6115 7C17.6243 7 17.6372 7 17.6501 7C17.6629 7 17.6758 7 17.6887 7C17.7016 7 17.7144 7 17.7273 7C17.7402 7 17.7531 7 17.766 7C17.7788 7 17.7917 7 17.8046 7C17.8175 7 17.8304 7 17.8432 7C17.8561 7 17.869 7 17.8819 7C17.8948 7 17.9077 7 17.9206 7C17.9334 7 17.9463 7 17.9592 7C17.9721 7 17.985 7 17.9979 7C18.0108 7 18.0237 7 18.0366 7C18.0495 7 18.0624 7 18.0752 7C18.0881 7 18.101 7 18.1139 7C18.1268 7 18.1397 7 18.1526 7C18.1655 7 18.1784 7 18.1913 7C18.2042 7 18.2171 7 18.23 7C18.2429 7 18.2558 7 18.2687 7C18.2816 7 18.2945 7 18.3074 7C18.3203 7 18.3333 7 18.3462 7C18.3591 7 18.372 7 18.3849 7C18.3978 7 18.4107 7 18.4236 7C18.4365 7 18.4494 7 18.4623 7C18.4752 7 18.4882 7 18.5011 7C18.514 7 18.5269 7 18.5398 7C18.5527 7 18.5656 7 18.5785 7C18.5915 7 18.6044 7 18.6173 7C18.6302 7 18.6431 7 18.656 7C18.6689 7 18.6819 7 18.6948 7C18.7077 7 18.7206 7 18.7335 7C18.7464 7 18.7594 7 18.7723 7C18.7852 7 18.7981 7 18.811 7C18.824 7 18.8369 7 18.8498 7C18.8627 7 18.8756 7 18.8886 7C18.9015 7 18.9144 7 18.9273 7C18.9402 7 18.9532 7 18.9661 7C18.979 7 18.9919 7 19.0049 7C19.0178 7 19.0307 7 19.0436 7C19.0566 7 19.0695 7 19.0824 7C19.0953 7 19.1082 7 19.1212 7C19.1341 7 19.147 7 19.1599 7C19.1729 7 19.1858 7 19.1987 7C19.2116 7 19.2246 7 19.2375 7C19.2504 7 19.2633 7 19.2763 7C19.2892 7 19.3021 7 19.3151 7C19.328 7 19.3409 7 19.3538 7C19.3668 7 19.3797 7 19.3926 7C19.4055 7 19.4185 7 19.4314 7C19.4443 7 19.4572 7 19.4702 7C19.4831 7 19.496 7 19.5089 7C19.5219 7 19.5348 7 19.5477 7C19.5606 7 19.5736 7 19.5865 7C19.5994 7 19.6123 7 19.6253 7C19.6382 7 19.6511 7 19.6641 7C19.677 7 19.6899 7 19.7028 7C19.7158 7 19.7287 7 19.7416 7C19.7545 7 19.7674 7 19.7804 7C19.7933 7 19.8062 7 19.8191 7C19.8321 7 19.845 7 19.8579 7C19.8708 7 19.8838 7 19.8967 7C19.9096 7 19.9225 7 19.9354 7C19.9484 7 19.9613 7 19.9742 7C19.9871 7 20.0001 7 20.013 7C20.0259 7 20.0388 7 20.0517 7C20.0647 7 20.0776 7 20.0905 7C20.1034 7 20.1163 7 20.1292 7C20.1422 7 20.1551 7 20.168 7C20.1809 7 20.1938 7 20.2067 7C20.2197 7 20.2326 7 20.2455 7C20.2584 7 20.2713 7 20.2842 7C20.2972 7 20.3101 7 20.323 7C20.3359 7 20.3488 7 20.3617 7C20.3746 7 20.3875 7 20.4004 7C20.4134 7 20.4263 7 20.4392 7C20.4521 7 20.465 7 20.4779 7C20.4908 7 20.5037 7 20.5166 7C20.5295 7 20.5424 7 20.5553 7C20.5682 7 20.5811 7 20.5941 7C20.607 7 20.6199 7 20.6328 7C20.6457 7 20.6586 7 20.6715 7C20.6844 7 20.6973 7 20.7102 7C20.7231 7 20.736 7 20.7489 7C20.7618 7 20.7746 7 20.7875 7C20.8004 7 20.8133 7 20.8262 7C20.8391 7 20.852 7 20.8649 7C20.8778 7 20.8907 7 20.9036 7C20.9165 7 20.9294 7 20.9422 7C20.9551 7 20.968 7 20.9809 7C20.9938 7 21.0067 7 21.0196 7C21.0324 7 21.0453 7 21.0582 7C21.0711 7 21.084 7 21.0968 7C21.1097 7 21.1226 7 21.1355 7C21.1484 7 21.1612 7 21.1741 7C21.187 7 21.1999 7 21.2127 7C21.2256 7 21.2385 7 21.2513 7C21.2642 7 21.2771 7 21.2899 7C21.3028 7 21.3157 7 21.3285 7C21.3414 7 21.3543 7 21.3671 7C21.38 7 21.3929 7 21.4057 7C21.4186 7 21.4314 7 21.4443 7C21.4572 7 21.47 7 21.4829 7C21.4957 7 21.5086 7 21.5214 7C21.5343 7 21.5471 7 21.56 7C21.5728 7 21.5857 7 21.5985 7C21.6114 7 21.6242 7 21.6371 7C21.6499 7 21.6627 7 21.6756 7C21.6884 7 21.7013 7 21.7141 7C21.7269 7 21.7398 7 21.7526 7C21.7654 7 21.7783 7 21.7911 7C21.8039 7 21.8168 7 21.8296 7C21.8424 7 21.8553 7 21.8681 7C21.8809 7 21.8937 7 21.9066 7C21.9194 7 21.9322 7 21.945 7C21.9578 7 21.9707 7 21.9835 7C21.9963 7 22.0091 7 22.0219 7C22.0347 7 22.0475 7 22.0603 7C22.0731 7 22.086 7 22.0988 7C22.1116 7 22.1244 7 22.1372 7C22.15 7 22.1628 7 22.1756 7C22.1884 7 22.2012 7 22.214 7C22.2268 7 22.2395 7 22.2523 7C22.2651 7 22.2779 7 22.2907 7C22.3035 7 22.3163 7 22.3291 7C22.3418 7 22.3546 7 22.3674 7C22.3802 7 22.393 7 22.4057 7C22.4185 7 22.4313 7 22.4441 7C22.4568 7 22.4696 7 22.4824 7C22.4951 7 22.5079 7 22.5207 7C22.5334 7 22.5462 7 22.559 7C22.5717 7 22.5845 7 22.5972 7C22.61 7 22.6227 7 22.6355 7C22.6482 7 22.661 7 22.6737 7C22.6865 7 22.6992 7 22.712 7C22.7247 7 22.7375 7 22.7502 7C22.7629 7 22.7757 7 22.7884 7C22.8011 7 22.8139 7 22.8266 7C22.8393 7 22.8521 7 22.8648 7C22.8775 7 22.8902 7 22.9029 7C22.9157 7 22.9284 7 22.9411 7C22.9538 7 22.9665 7 22.9792 7C22.992 7 23.0047 7 23.0174 7C23.0301 7 23.0428 7 23.0555 7C23.0682 7 23.0809 7 23.0936 7C23.1063 7 23.119 7 23.1317 7C23.1444 7 23.157 7 23.1697 7C23.1824 7 23.1951 7 23.2078 7C23.2205 7 23.2331 7 23.2458 7C23.2585 7 23.2712 7 23.2838 7C23.2965 7 23.3092 7 23.3219 7C23.3345 7 23.3472 7 23.3599 7C23.3725 7 23.3852 7 23.3978 7C23.4105 7 23.4231 7 23.4358 7C23.4484 7 23.4611 7 23.4737 7C23.4864 7 23.499 7 23.5117 7C23.5243 7 23.5369 7 23.5496 7C23.5622 7 23.5749 7 23.5875 7C23.6001 7 23.6127 7 23.6254 7C23.638 7 23.6506 7 23.6632 7C23.6758 7 23.6885 7 23.7011 7C23.7137 7 23.7263 7 23.7389 7C23.7515 7 23.7641 7 23.7767 7C23.7893 7 23.8019 7 23.8145 7C23.8271 7 23.8397 7 23.8523 7C23.8649 7 23.8775 7 23.8901 7C23.9026 7 23.9152 7 23.9278 7C23.9404 7 23.953 7 23.9655 7C23.9781 7 23.9907 7 24.0032 7C24.0158 7 24.0284 7 24.0409 7C24.0535 7 24.0661 7 24.0786 7C24.0912 7 24.1037 7 24.1163 7C24.1288 7 24.1414 7 24.1539 7C24.1664 7 24.179 7 24.1915 7C24.204 7 24.2166 7 24.2291 7C24.2416 7 24.2542 7 24.2667 7C24.2792 7 24.2917 7 24.3042 7C24.3168 7 24.3293 7 24.3418 7C24.3543 7 24.3668 7 24.3793 7C24.3918 7 24.4043 7 24.4168 7C24.4293 7 24.4418 7 24.4543 7C24.4668 7 24.4793 7 24.4917 7C24.5042 7 24.5167 7 24.5292 7C24.5417 7 24.5541 7 24.5666 7C24.5791 7 24.5915 7 24.604 7C24.6165 7 24.6289 7 24.6414 7C24.6538 7 24.6663 7 24.6788 7C24.6912 7 24.7036 7 24.7161 7C24.7285 7 24.741 7 24.7534 7C24.7658 7 24.7783 7 24.7907 7C24.8031 7 24.8156 7 24.828 7C24.8404 7 24.8528 7 24.8652 7C24.8776 7 24.8901 7 24.9025 7C24.9149 7 24.9273 7 24.9397 7C24.9521 7 24.9645 7 24.9769 7C24.9892 7 25.0016 7 25.014 7C25.0264 7 25.0388 7 25.0512 7C25.0635 7 25.0759 7 25.0883 7C25.1007 7 25.113 7 25.1254 7C25.1377 7 25.1501 7 25.1625 7C25.1748 7 25.1872 7 25.1995 7C25.2119 7 25.2242 7 25.2365 7C25.2489 7 25.2612 7 25.2735 7C25.2859 7 25.2982 7 25.3105 7C25.3229 7 25.3352 7 25.3475 7C25.3598 7 25.3721 7 25.3844 7C25.3967 7 25.409 7 25.4213 7C25.4336 7 25.4459 7 25.4582 7C25.4705 7 25.4828 7 25.4951 7C25.5074 7 25.5197 7 25.5319 7C25.5442 7 25.5565 7 25.5687 7C25.581 7 25.5933 7 25.6055 7C25.6178 7 25.6301 7 25.6423 7C25.6546 7 25.6668 7 25.679 7C25.6913 7 25.7035 7 25.7158 7C25.728 7 25.7402 7 25.7525 7C25.7647 7 25.7769 7 25.7891 7C25.8013 7 25.8136 7 25.8258 7C25.838 7 25.8502 7 25.8624 7C25.8746 7 25.8868 7 25.899 7C25.9112 7 25.9233 7 25.9355 7C25.9477 7 25.9599 7 25.9721 7C25.9842 7 25.9964 7 26.0086 7C26.0207 7 26.0329 7 26.0451 7C26.0572 7 26.0694 7 26.0815 7C26.0937 7 26.1058 7 26.118 7C26.1301 7 26.1422 7 26.1544 7C26.1665 7 26.1786 7 26.1907 7C26.2029 7 26.215 7 26.2271 7C26.2392 7 26.2513 7 26.2634 7C26.2755 7 26.2876 7 26.2997 7C26.3118 7 26.3239 7 26.336 7C26.3481 7 26.3601 7 26.3722 7C26.3843 7 26.3964 7 26.4084 7C26.4205 7 26.4326 7 26.4446 7C26.4567 7 26.4687 7 26.4808 7C26.4928 7 26.5049 7 26.5169 7C26.5289 7 26.541 7 26.553 7C26.565 7 26.577 7 26.5891 7C26.6011 7 26.6131 7 26.6251 7C26.6371 7 26.6491 7 26.6611 7C26.6731 7 26.6851 7 26.6971 7C26.7091 7 26.7211 7 26.7331 7C26.745 7 26.757 7 26.769 7C26.781 7 26.7929 7 26.8049 7C26.8168 7 26.8288 7 26.8407 7C26.8527 7 26.8646 7 26.8766 7C26.8885 7 26.9005 7 26.9124 7C26.9243 7 26.9362 7 26.9482 7C26.9601 7 26.972 7 26.9839 7C26.9958 7 27.0077 7 27.0196 7C27.0315 7 27.0434 7 27.0553 7C27.0672 7 27.0791 7 27.091 7C27.1028 7 27.1147 7 27.1266 7C27.1384 7 27.1503 7 27.1622 7C27.174 7 27.1859 7 27.1977 7C27.2096 7 27.2214 7 27.2333 7C27.2451 7 27.2569 7 27.2688 7C27.2806 7 27.2924 7 27.3042 7C27.316 7 27.3278 7 27.3397 7C27.3515 7 27.3633 7 27.3751 7C27.3869 7 27.3986 7 27.4104 7C27.4222 7 27.434 7 27.4458 7C27.4575 7 27.4693 7 27.4811 7C27.4928 7 27.5046 7 27.5163 7C27.5281 7 27.5398 7 27.5516 7C27.5633 7 27.5751 7 27.5868 7C27.5985 7 27.6102 7 27.622 7C27.6337 7 27.6454 7 27.6571 7C27.6688 7 27.6805 7 27.6922 7C27.7039 7 27.7156 7 27.7273 7C27.739 7 27.7506 7 27.7623 7C27.774 7 27.7857 7 27.7973 7C27.809 7 27.8206 7 27.8323 7C27.8439 7 27.8556 7 27.8672 7C27.8789 7 27.8905 7 27.9021 7C27.9138 7 27.9254 7 27.937 7C27.9486 7 27.9602 7 27.9718 7C27.9834 7 27.995 7 28.0066 7C28.0182 7 28.0298 7 28.0414 7C28.053 7 28.0646 7 28.0761 7C28.0877 7 28.0993 7 28.1108 7C28.1224 7 28.1339 7 28.1455 7C28.157 7 28.1686 7 28.1801 7C28.1916 7 28.2032 7 28.2147 7C28.2262 7 28.2377 7 28.2492 7C28.2608 7 28.2723 7 28.2838 7C28.2953 7 28.3068 7 28.3182 7C28.3297 7 28.3412 7 28.3527 7C28.3642 7 28.3756 7 28.3871 7C28.3985 7 28.41 7 28.4215 7C28.4329 7 28.4444 7 28.4558 7C28.4672 7 28.4787 7 28.4901 7C28.5015 7 28.5129 7 28.5243 7C28.5358 7 28.5472 7 28.5586 7C28.57 7 28.5814 7 28.5928 7C28.6041 7 28.6155 7 28.6269 7C28.6383 7 28.6496 7 28.661 7C28.6724 7 28.6837 7 28.6951 7C28.7064 7 28.7178 7 28.7291 7C28.7405 7 28.7518 7 28.7631 7C28.7744 7 28.7858 7 28.7971 7C28.8084 7 28.8197 7 28.831 7C28.8423 7 28.8536 7 28.8649 7C28.8762 7 28.8874 7 28.8987 7C28.91 7 28.9213 7 28.9325 7C28.9438 7 28.955 7 28.9663 7C28.9775 7 28.9888 7 29 7V5C28.9888 5 28.9775 5 28.9663 5C28.955 5 28.9438 5 28.9325 5C28.9213 5 28.91 5 28.8987 5C28.8874 5 28.8762 5 28.8649 5C28.8536 5 28.8423 5 28.831 5C28.8197 5 28.8084 5 28.7971 5C28.7858 5 28.7744 5 28.7631 5C28.7518 5 28.7405 5 28.7291 5C28.7178 5 28.7064 5 28.6951 5C28.6837 5 28.6724 5 28.661 5C28.6496 5 28.6383 5 28.6269 5C28.6155 5 28.6041 5 28.5928 5C28.5814 5 28.57 5 28.5586 5C28.5472 5 28.5358 5 28.5243 5C28.5129 5 28.5015 5 28.4901 5C28.4787 5 28.4672 5 28.4558 5C28.4444 5 28.4329 5 28.4215 5C28.41 5 28.3985 5 28.3871 5C28.3756 5 28.3642 5 28.3527 5C28.3412 5 28.3297 5 28.3182 5C28.3068 5 28.2953 5 28.2838 5C28.2723 5 28.2608 5 28.2492 5C28.2377 5 28.2262 5 28.2147 5C28.2032 5 28.1916 5 28.1801 5C28.1686 5 28.157 5 28.1455 5C28.1339 5 28.1224 5 28.1108 5C28.0993 5 28.0877 5 28.0761 5C28.0646 5 28.053 5 28.0414 5C28.0298 5 28.0182 5 28.0066 5C27.995 5 27.9834 5 27.9718 5C27.9602 5 27.9486 5 27.937 5C27.9254 5 27.9138 5 27.9021 5C27.8905 5 27.8789 5 27.8672 5C27.8556 5 27.8439 5 27.8323 5C27.8206 5 27.809 5 27.7973 5C27.7857 5 27.774 5 27.7623 5C27.7506 5 27.739 5 27.7273 5C27.7156 5 27.7039 5 27.6922 5C27.6805 5 27.6688 5 27.6571 5C27.6454 5 27.6337 5 27.622 5C27.6102 5 27.5985 5 27.5868 5C27.5751 5 27.5633 5 27.5516 5C27.5398 5 27.5281 5 27.5163 5C27.5046 5 27.4928 5 27.4811 5C27.4693 5 27.4575 5 27.4458 5C27.434 5 27.4222 5 27.4104 5C27.3986 5 27.3869 5 27.3751 5C27.3633 5 27.3515 5 27.3397 5C27.3278 5 27.316 5 27.3042 5C27.2924 5 27.2806 5 27.2688 5C27.2569 5 27.2451 5 27.2333 5C27.2214 5 27.2096 5 27.1977 5C27.1859 5 27.174 5 27.1622 5C27.1503 5 27.1384 5 27.1266 5C27.1147 5 27.1028 5 27.091 5C27.0791 5 27.0672 5 27.0553 5C27.0434 5 27.0315 5 27.0196 5C27.0077 5 26.9958 5 26.9839 5C26.972 5 26.9601 5 26.9482 5C26.9362 5 26.9243 5 26.9124 5C26.9005 5 26.8885 5 26.8766 5C26.8646 5 26.8527 5 26.8407 5C26.8288 5 26.8168 5 26.8049 5C26.7929 5 26.781 5 26.769 5C26.757 5 26.745 5 26.7331 5C26.7211 5 26.7091 5 26.6971 5C26.6851 5 26.6731 5 26.6611 5C26.6491 5 26.6371 5 26.6251 5C26.6131 5 26.6011 5 26.5891 5C26.577 5 26.565 5 26.553 5C26.541 5 26.5289 5 26.5169 5C26.5049 5 26.4928 5 26.4808 5C26.4687 5 26.4567 5 26.4446 5C26.4326 5 26.4205 5 26.4084 5C26.3964 5 26.3843 5 26.3722 5C26.3601 5 26.3481 5 26.336 5C26.3239 5 26.3118 5 26.2997 5C26.2876 5 26.2755 5 26.2634 5C26.2513 5 26.2392 5 26.2271 5C26.215 5 26.2029 5 26.1907 5C26.1786 5 26.1665 5 26.1544 5C26.1422 5 26.1301 5 26.118 5C26.1058 5 26.0937 5 26.0815 5C26.0694 5 26.0572 5 26.0451 5C26.0329 5 26.0207 5 26.0086 5C25.9964 5 25.9842 5 25.9721 5C25.9599 5 25.9477 5 25.9355 5C25.9233 5 25.9112 5 25.899 5C25.8868 5 25.8746 5 25.8624 5C25.8502 5 25.838 5 25.8258 5C25.8136 5 25.8013 5 25.7891 5C25.7769 5 25.7647 5 25.7525 5C25.7402 5 25.728 5 25.7158 5C25.7035 5 25.6913 5 25.679 5C25.6668 5 25.6546 5 25.6423 5C25.6301 5 25.6178 5 25.6055 5C25.5933 5 25.581 5 25.5687 5C25.5565 5 25.5442 5 25.5319 5C25.5197 5 25.5074 5 25.4951 5C25.4828 5 25.4705 5 25.4582 5C25.4459 5 25.4336 5 25.4213 5C25.409 5 25.3967 5 25.3844 5C25.3721 5 25.3598 5 25.3475 5C25.3352 5 25.3229 5 25.3105 5C25.2982 5 25.2859 5 25.2735 5C25.2612 5 25.2489 5 25.2365 5C25.2242 5 25.2119 5 25.1995 5C25.1872 5 25.1748 5 25.1625 5C25.1501 5 25.1377 5 25.1254 5C25.113 5 25.1007 5 25.0883 5C25.0759 5 25.0635 5 25.0512 5C25.0388 5 25.0264 5 25.014 5C25.0016 5 24.9892 5 24.9769 5C24.9645 5 24.9521 5 24.9397 5C24.9273 5 24.9149 5 24.9025 5C24.8901 5 24.8776 5 24.8652 5C24.8528 5 24.8404 5 24.828 5C24.8156 5 24.8031 5 24.7907 5C24.7783 5 24.7658 5 24.7534 5C24.741 5 24.7285 5 24.7161 5C24.7036 5 24.6912 5 24.6788 5C24.6663 5 24.6538 5 24.6414 5C24.6289 5 24.6165 5 24.604 5C24.5915 5 24.5791 5 24.5666 5C24.5541 5 24.5417 5 24.5292 5C24.5167 5 24.5042 5 24.4917 5C24.4793 5 24.4668 5 24.4543 5C24.4418 5 24.4293 5 24.4168 5C24.4043 5 24.3918 5 24.3793 5C24.3668 5 24.3543 5 24.3418 5C24.3293 5 24.3168 5 24.3042 5C24.2917 5 24.2792 5 24.2667 5C24.2542 5 24.2416 5 24.2291 5C24.2166 5 24.204 5 24.1915 5C24.179 5 24.1664 5 24.1539 5C24.1414 5 24.1288 5 24.1163 5C24.1037 5 24.0912 5 24.0786 5C24.0661 5 24.0535 5 24.0409 5C24.0284 5 24.0158 5 24.0032 5C23.9907 5 23.9781 5 23.9655 5C23.953 5 23.9404 5 23.9278 5C23.9152 5 23.9026 5 23.8901 5C23.8775 5 23.8649 5 23.8523 5C23.8397 5 23.8271 5 23.8145 5C23.8019 5 23.7893 5 23.7767 5C23.7641 5 23.7515 5 23.7389 5C23.7263 5 23.7137 5 23.7011 5C23.6885 5 23.6758 5 23.6632 5C23.6506 5 23.638 5 23.6254 5C23.6127 5 23.6001 5 23.5875 5C23.5749 5 23.5622 5 23.5496 5C23.5369 5 23.5243 5 23.5117 5C23.499 5 23.4864 5 23.4737 5C23.4611 5 23.4484 5 23.4358 5C23.4231 5 23.4105 5 23.3978 5C23.3852 5 23.3725 5 23.3599 5C23.3472 5 23.3345 5 23.3219 5C23.3092 5 23.2965 5 23.2838 5C23.2712 5 23.2585 5 23.2458 5C23.2331 5 23.2205 5 23.2078 5C23.1951 5 23.1824 5 23.1697 5C23.157 5 23.1444 5 23.1317 5C23.119 5 23.1063 5 23.0936 5C23.0809 5 23.0682 5 23.0555 5C23.0428 5 23.0301 5 23.0174 5C23.0047 5 22.992 5 22.9792 5C22.9665 5 22.9538 5 22.9411 5C22.9284 5 22.9157 5 22.9029 5C22.8902 5 22.8775 5 22.8648 5C22.8521 5 22.8393 5 22.8266 5C22.8139 5 22.8011 5 22.7884 5C22.7757 5 22.7629 5 22.7502 5C22.7375 5 22.7247 5 22.712 5C22.6992 5 22.6865 5 22.6737 5C22.661 5 22.6482 5 22.6355 5C22.6227 5 22.61 5 22.5972 5C22.5845 5 22.5717 5 22.559 5C22.5462 5 22.5334 5 22.5207 5C22.5079 5 22.4951 5 22.4824 5C22.4696 5 22.4568 5 22.4441 5C22.4313 5 22.4185 5 22.4057 5C22.393 5 22.3802 5 22.3674 5C22.3546 5 22.3418 5 22.3291 5C22.3163 5 22.3035 5 22.2907 5C22.2779 5 22.2651 5 22.2523 5C22.2395 5 22.2268 5 22.214 5C22.2012 5 22.1884 5 22.1756 5C22.1628 5 22.15 5 22.1372 5C22.1244 5 22.1116 5 22.0988 5C22.086 5 22.0731 5 22.0603 5C22.0475 5 22.0347 5 22.0219 5C22.0091 5 21.9963 5 21.9835 5C21.9707 5 21.9578 5 21.945 5C21.9322 5 21.9194 5 21.9066 5C21.8937 5 21.8809 5 21.8681 5C21.8553 5 21.8424 5 21.8296 5C21.8168 5 21.8039 5 21.7911 5C21.7783 5 21.7654 5 21.7526 5C21.7398 5 21.7269 5 21.7141 5C21.7013 5 21.6884 5 21.6756 5C21.6627 5 21.6499 5 21.6371 5C21.6242 5 21.6114 5 21.5985 5C21.5857 5 21.5728 5 21.56 5C21.5471 5 21.5343 5 21.5214 5C21.5086 5 21.4957 5 21.4829 5C21.47 5 21.4572 5 21.4443 5C21.4314 5 21.4186 5 21.4057 5C21.3929 5 21.38 5 21.3671 5C21.3543 5 21.3414 5 21.3285 5C21.3157 5 21.3028 5 21.2899 5C21.2771 5 21.2642 5 21.2513 5C21.2385 5 21.2256 5 21.2127 5C21.1999 5 21.187 5 21.1741 5C21.1612 5 21.1484 5 21.1355 5C21.1226 5 21.1097 5 21.0968 5C21.084 5 21.0711 5 21.0582 5C21.0453 5 21.0324 5 21.0196 5C21.0067 5 20.9938 5 20.9809 5C20.968 5 20.9551 5 20.9422 5C20.9294 5 20.9165 5 20.9036 5C20.8907 5 20.8778 5 20.8649 5C20.852 5 20.8391 5 20.8262 5C20.8133 5 20.8004 5 20.7875 5C20.7746 5 20.7618 5 20.7489 5C20.736 5 20.7231 5 20.7102 5C20.6973 5 20.6844 5 20.6715 5C20.6586 5 20.6457 5 20.6328 5C20.6199 5 20.607 5 20.5941 5C20.5811 5 20.5682 5 20.5553 5C20.5424 5 20.5295 5 20.5166 5C20.5037 5 20.4908 5 20.4779 5C20.465 5 20.4521 5 20.4392 5C20.4263 5 20.4134 5 20.4004 5C20.3875 5 20.3746 5 20.3617 5C20.3488 5 20.3359 5 20.323 5C20.3101 5 20.2972 5 20.2842 5C20.2713 5 20.2584 5 20.2455 5C20.2326 5 20.2197 5 20.2067 5C20.1938 5 20.1809 5 20.168 5C20.1551 5 20.1422 5 20.1292 5C20.1163 5 20.1034 5 20.0905 5C20.0776 5 20.0647 5 20.0517 5C20.0388 5 20.0259 5 20.013 5C20.0001 5 19.9871 5 19.9742 5C19.9613 5 19.9484 5 19.9354 5C19.9225 5 19.9096 5 19.8967 5C19.8838 5 19.8708 5 19.8579 5C19.845 5 19.8321 5 19.8191 5C19.8062 5 19.7933 5 19.7804 5C19.7674 5 19.7545 5 19.7416 5C19.7287 5 19.7158 5 19.7028 5C19.6899 5 19.677 5 19.6641 5C19.6511 5 19.6382 5 19.6253 5C19.6123 5 19.5994 5 19.5865 5C19.5736 5 19.5606 5 19.5477 5C19.5348 5 19.5219 5 19.5089 5C19.496 5 19.4831 5 19.4702 5C19.4572 5 19.4443 5 19.4314 5C19.4185 5 19.4055 5 19.3926 5C19.3797 5 19.3668 5 19.3538 5C19.3409 5 19.328 5 19.3151 5C19.3021 5 19.2892 5 19.2763 5C19.2633 5 19.2504 5 19.2375 5C19.2246 5 19.2116 5 19.1987 5C19.1858 5 19.1729 5 19.1599 5C19.147 5 19.1341 5 19.1212 5C19.1082 5 19.0953 5 19.0824 5C19.0695 5 19.0566 5 19.0436 5C19.0307 5 19.0178 5 19.0049 5C18.9919 5 18.979 5 18.9661 5C18.9532 5 18.9402 5 18.9273 5C18.9144 5 18.9015 5 18.8886 5C18.8756 5 18.8627 5 18.8498 5C18.8369 5 18.824 5 18.811 5C18.7981 5 18.7852 5 18.7723 5C18.7594 5 18.7464 5 18.7335 5C18.7206 5 18.7077 5 18.6948 5C18.6819 5 18.6689 5 18.656 5C18.6431 5 18.6302 5 18.6173 5C18.6044 5 18.5915 5 18.5785 5C18.5656 5 18.5527 5 18.5398 5C18.5269 5 18.514 5 18.5011 5C18.4882 5 18.4752 5 18.4623 5C18.4494 5 18.4365 5 18.4236 5C18.4107 5 18.3978 5 18.3849 5C18.372 5 18.3591 5 18.3462 5C18.3333 5 18.3203 5 18.3074 5C18.2945 5 18.2816 5 18.2687 5C18.2558 5 18.2429 5 18.23 5C18.2171 5 18.2042 5 18.1913 5C18.1784 5 18.1655 5 18.1526 5C18.1397 5 18.1268 5 18.1139 5C18.101 5 18.0881 5 18.0752 5C18.0624 5 18.0495 5 18.0366 5C18.0237 5 18.0108 5 17.9979 5C17.985 5 17.9721 5 17.9592 5C17.9463 5 17.9334 5 17.9206 5C17.9077 5 17.8948 5 17.8819 5C17.869 5 17.8561 5 17.8432 5C17.8304 5 17.8175 5 17.8046 5C17.7917 5 17.7788 5 17.766 5C17.7531 5 17.7402 5 17.7273 5C17.7144 5 17.7016 5 17.6887 5C17.6758 5 17.6629 5 17.6501 5C17.6372 5 17.6243 5 17.6115 5C17.5986 5 17.5857 5 17.5729 5C17.56 5 17.5471 5 17.5343 5C17.5214 5 17.5085 5 17.4957 5C17.4828 5 17.4699 5 17.4571 5C17.4442 5 17.4314 5 17.4185 5C17.4057 5 17.3928 5 17.3799 5C17.3671 5 17.3542 5 17.3414 5C17.3285 5 17.3157 5 17.3028 5C17.29 5 17.2771 5 17.2643 5C17.2514 5 17.2386 5 17.2258 5C17.2129 5 17.2001 5 17.1872 5C17.1744 5 17.1616 5 17.1487 5C17.1359 5 17.123 5 17.1102 5C17.0974 5 17.0845 5 17.0717 5C17.0589 5 17.046 5 17.0332 5C17.0204 5 17.0076 5 16.9947 5C16.9819 5 16.9691 5 16.9563 5C16.9434 5 16.9306 5 16.9178 5C16.905 5 16.8922 5 16.8794 5C16.8665 5 16.8537 5 16.8409 5C16.8281 5 16.8153 5 16.8025 5C16.7897 5 16.7769 5 16.7641 5C16.7513 5 16.7385 5 16.7257 5C16.7129 5 16.7001 5 16.6873 5C16.6745 5 16.6617 5 16.6489 5C16.6361 5 16.6233 5 16.6105 5C16.5977 5 16.5849 5 16.5721 5C16.5593 5 16.5466 5 16.5338 5C16.521 5 16.5082 5 16.4954 5C16.4827 5 16.4699 5 16.4571 5C16.4443 5 16.4316 5 16.4188 5C16.406 5 16.3932 5 16.3805 5C16.3677 5 16.3549 5 16.3422 5C16.3294 5 16.3167 5 16.3039 5C16.2911 5 16.2784 5 16.2656 5C16.2529 5 16.2401 5 16.2274 5C16.2146 5 16.2019 5 16.1891 5C16.1764 5 16.1636 5 16.1509 5C16.1382 5 16.1254 5 16.1127 5C16.0999 5 16.0872 5 16.0745 5C16.0617 5 16.049 5 16.0363 5C16.0235 5 16.0108 5 15.9981 5C15.9854 5 15.9726 5 15.9599 5C15.9472 5 15.9345 5 15.9218 5C15.9091 5 15.8963 5 15.8836 5C15.8709 5 15.8582 5 15.8455 5C15.8328 5 15.8201 5 15.8074 5C15.7947 5 15.782 5 15.7693 5C15.7566 5 15.7439 5 15.7312 5C15.7185 5 15.7058 5 15.6932 5C15.6805 5 15.6678 5 15.6551 5C15.6424 5 15.6297 5 15.6171 5C15.6044 5 15.5917 5 15.579 5C15.5664 5 15.5537 5 15.541 5C15.5284 5 15.5157 5 15.503 5C15.4904 5 15.4777 5 15.4651 5C15.4524 5 15.4398 5 15.4271 5C15.4145 5 15.4018 5 15.3892 5C15.3765 5 15.3639 5 15.3512 5C15.3386 5 15.326 5 15.3133 5C15.3007 5 15.2881 5 15.2754 5C15.2628 5 15.2502 5 15.2376 5C15.2249 5 15.2123 5 15.1997 5C15.1871 5 15.1745 5 15.1618 5C15.1492 5 15.1366 5 15.124 5C15.1114 5 15.0988 5 15.0862 5C15.0736 5 15.061 5 15.0484 5C15.0358 5 15.0232 5 15.0106 5C14.998 5 14.9855 5 14.9729 5C14.9603 5 14.9477 5 14.9351 5C14.9226 5 14.91 5 14.8974 5C14.8848 5 14.8723 5 14.8597 5C14.8471 5 14.8346 5 14.822 5C14.8095 5 14.7969 5 14.7843 5C14.7718 5 14.7592 5 14.7467 5C14.7341 5 14.7216 5 14.7091 5C14.6965 5 14.684 5 14.6714 5C14.6589 5 14.6464 5 14.6339 5C14.6213 5 14.6088 5 14.5963 5C14.5838 5 14.5712 5 14.5587 5C14.5462 5 14.5337 5 14.5212 5C14.5087 5 14.4962 5 14.4837 5C14.4712 5 14.4587 5 14.4462 5C14.4337 5 14.4212 5 14.4087 5C14.3962 5 14.3837 5 14.3712 5C14.3588 5 14.3463 5 14.3338 5C14.3213 5 14.3088 5 14.2964 5C14.2839 5 14.2714 5 14.259 5C14.2465 5 14.2341 5 14.2216 5C14.2092 5 14.1967 5 14.1843 5C14.1718 5 14.1594 5 14.1469 5C14.1345 5 14.122 5 14.1096 5C14.0972 5 14.0847 5 14.0723 5C14.0599 5 14.0475 5 14.035 5C14.0226 5 14.0102 5 13.9978 5C13.9854 5 13.973 5 13.9606 5C13.9482 5 13.9358 5 13.9234 5C13.911 5 13.8986 5 13.8862 5C13.8738 5 13.8614 5 13.849 5C13.8366 5 13.8242 5 13.8119 5C13.7995 5 13.7871 5 13.7748 5C13.7624 5 13.75 5 13.7377 5C13.7253 5 13.7129 5 13.7006 5C13.6882 5 13.6759 5 13.6635 5C13.6512 5 13.6388 5 13.6265 5C13.6142 5 13.6018 5 13.5895 5C13.5772 5 13.5649 5 13.5525 5C13.5402 5 13.5279 5 13.5156 5C13.5033 5 13.4909 5 13.4786 5C13.4663 5 13.454 5 13.4417 5C13.4294 5 13.4171 5 13.4048 5C13.3926 5 13.3803 5 13.368 5C13.3557 5 13.3434 5 13.3312 5C13.3189 5 13.3066 5 13.2943 5C13.2821 5 13.2698 5 13.2576 5C13.2453 5 13.233 5 13.2208 5C13.2085 5 13.1963 5 13.1841 5C13.1718 5 13.1596 5 13.1473 5C13.1351 5 13.1229 5 13.1107 5C13.0984 5 13.0862 5 13.074 5C13.0618 5 13.0496 5 13.0374 5C13.0251 5 13.0129 5 13.0007 5C12.9885 5 12.9763 5 12.9642 5C12.952 5 12.9398 5 12.9276 5C12.9154 5 12.9032 5 12.8911 5C12.8789 5 12.8667 5 12.8546 5C12.8424 5 12.8302 5 12.8181 5C12.8059 5 12.7938 5 12.7816 5C12.7695 5 12.7573 5 12.7452 5C12.7331 5 12.7209 5 12.7088 5C12.6967 5 12.6845 5 12.6724 5C12.6603 5 12.6482 5 12.6361 5C12.624 5 12.6119 5 12.5998 5C12.5877 5 12.5756 5 12.5635 5C12.5514 5 12.5393 5 12.5272 5C12.5151 5 12.503 5 12.491 5C12.4789 5 12.4668 5 12.4548 5C12.4427 5 12.4306 5 12.4186 5C12.4065 5 12.3945 5 12.3824 5C12.3704 5 12.3583 5 12.3463 5C12.3343 5 12.3222 5 12.3102 5C12.2982 5 12.2862 5 12.2741 5C12.2621 5 12.2501 5 12.2381 5C12.2261 5 12.2141 5 12.2021 5C12.1901 5 12.1781 5 12.1661 5C12.1541 5 12.1421 5 12.1302 5C12.1182 5 12.1062 5 12.0943 5C12.0823 5 12.0703 5 12.0584 5C12.0464 5 12.0344 5 12.0225 5C12.0105 5 11.9986 5 11.9867 5C11.9747 5 11.9628 5 11.9509 5C11.9389 5 11.927 5 11.9151 5C11.9032 5 11.8913 5 11.8794 5C11.8674 5 11.8555 5 11.8436 5C11.8317 5 11.8199 5 11.808 5C11.7961 5 11.7842 5 11.7723 5C11.7604 5 11.7486 5 11.7367 5C11.7248 5 11.713 5 11.7011 5C11.6893 5 11.6774 5 11.6656 5C11.6537 5 11.6419 5 11.63 5C11.6182 5 11.6064 5 11.5945 5C11.5827 5 11.5709 5 11.5591 5C11.5473 5 11.5355 5 11.5237 5C11.5118 5 11.5001 5 11.4883 5C11.4765 5 11.4647 5 11.4529 5C11.4411 5 11.4293 5 11.4176 5C11.4058 5 11.394 5 11.3823 5C11.3705 5 11.3587 5 11.347 5C11.3352 5 11.3235 5 11.3118 5C11.3 5 11.2883 5 11.2766 5C11.2648 5 11.2531 5 11.2414 5C11.2297 5 11.218 5 11.2063 5C11.1946 5 11.1829 5 11.1712 5C11.1595 5 11.1478 5 11.1361 5C11.1244 5 11.1127 5 11.1011 5C11.0894 5 11.0777 5 11.0661 5C11.0544 5 11.0427 5 11.0311 5C11.0194 5 11.0078 5 10.9962 5C10.9845 5 10.9729 5 10.9613 5C10.9496 5 10.938 5 10.9264 5C10.9148 5 10.9032 5 10.8916 5C10.88 5 10.8684 5 10.8568 5C10.8452 5 10.8336 5 10.822 5C10.8104 5 10.7989 5 10.7873 5C10.7757 5 10.7642 5 10.7526 5C10.741 5 10.7295 5 10.718 5C10.7064 5 10.6949 5 10.6833 5C10.6718 5 10.6603 5 10.6488 5C10.6372 5 10.6257 5 10.6142 5C10.6027 5 10.5912 5 10.5797 5C10.5682 5 10.5567 5 10.5452 5C10.5337 5 10.5223 5 10.5108 5C10.4993 5 10.4878 5 10.4764 5C10.4649 5 10.4535 5 10.442 5C10.4306 5 10.4191 5 10.4077 5C10.3963 5 10.3848 5 10.3734 5C10.362 5 10.3506 5 10.3392 5C10.3277 5 10.3163 5 10.3049 5C10.2935 5 10.2821 5 10.2708 5C10.2594 5 10.248 5 10.2366 5C10.2252 5 10.2139 5 10.2025 5C10.1912 5 10.1798 5 10.1684 5C10.1571 5 10.1458 5 10.1344 5C10.1231 5 10.1118 5 10.1004 5C10.0891 5 10.0778 5 10.0665 5C10.0552 5 10.0439 5 10.0326 5C10.0213 5 10.01 5 9.99869 5V7Z" fill="black"/>
</g>
<defs>
<filter id="filter0_d_16_10" x="0" y="0.226498" width="30" height="13.547" filterUnits="userSpaceOnUse" color-interpolation-filters="sRGB">
<feFlood flood-opacity="0" result="BackgroundImageFix"/>
<feColorMatrix in="SourceAlpha" type="matrix" values="0 0 0 0 0 0 0 0 0 0 0 0 0 0 0 0 0 0 127 0" result="hardAlpha"/>
<feOffset dy="1"/>
<feGaussianBlur stdDeviation="0.5"/>
<feComposite in2="hardAlpha" operator="out"/>
<feColorMatrix type="matrix" values="0 0 0 0 0 0 0 0 0 0 0 0 0 0 0 0 0 0 0.25 0"/>
<feBlend mode="normal" in2="BackgroundImageFix" result="effect1_dropShadow_16_10"/>
<feBlend mode="normal" in="SourceGraphic" in2="effect1_dropShadow_16_10" result="shape"/>
</filter>
</defs>
</svg>
