<svg width="27" height="21" viewBox="0 0 27 21" fill="none" xmlns="http://www.w3.org/2000/svg">
<g filter="url(#filter0_d_1_19)">
<path d="M25.5 9.5L10.5 0.839746V18.1603L25.5 9.5ZM1.5 9.5C1.5 11 1.50002 11 1.50005 11C1.50009 11 1.50014 11 1.50022 11C1.50029 11 1.50038 11 1.50048 11C1.50059 11 1.50072 11 1.50086 11C1.501 11 1.50117 11 1.50135 11C1.50152 11 1.50172 11 1.50194 11C1.50215 11 1.50238 11 1.50263 11C1.50288 11 1.50315 11 1.50344 11C1.50372 11 1.50403 11 1.50435 11C1.50467 11 1.50501 11 1.50537 11C1.50572 11 1.5061 11 1.50649 11C1.50688 11 1.50729 11 1.50772 11C1.50815 11 1.50859 11 1.50906 11C1.50952 11 1.51 11 1.5105 11C1.511 11 1.51151 11 1.51205 11C1.51258 11 1.51313 11 1.5137 11C1.51427 11 1.51485 11 1.51546 11C1.51606 11 1.51668 11 1.51732 11C1.51796 11 1.51861 11 1.51929 11C1.51996 11 1.52065 11 1.52136 11C1.52207 11 1.52279 11 1.52354 11C1.52428 11 1.52504 11 1.52582 11C1.5266 11 1.52739 11 1.52821 11C1.52902 11 1.52985 11 1.5307 11C1.53154 11 1.53241 11 1.53329 11C1.53417 11 1.53507 11 1.53599 11C1.5369 11 1.53784 11 1.53879 11C1.53974 11 1.54071 11 1.5417 11C1.54268 11 1.54368 11 1.5447 11C1.54572 11 1.54676 11 1.54782 11C1.54887 11 1.54994 11 1.55103 11C1.55212 11 1.55322 11 1.55435 11C1.55547 11 1.55661 11 1.55777 11C1.55893 11 1.5601 11 1.56129 11C1.56248 11 1.56369 11 1.56492 11C1.56614 11 1.56738 11 1.56864 11C1.5699 11 1.57118 11 1.57247 11C1.57377 11 1.57508 11 1.5764 11C1.57773 11 1.57908 11 1.58044 11C1.5818 11 1.58318 11 1.58457 11C1.58597 11 1.58738 11 1.58881 11C1.59024 11 1.59168 11 1.59314 11C1.59461 11 1.59609 11 1.59758 11C1.59908 11 1.60059 11 1.60212 11C1.60365 11 1.6052 11 1.60676 11C1.60832 11 1.6099 11 1.6115 11C1.6131 11 1.61471 11 1.61634 11C1.61797 11 1.61962 11 1.62128 11C1.62295 11 1.62463 11 1.62632 11C1.62802 11 1.62973 11 1.63146 11C1.63319 11 1.63494 11 1.63671 11C1.63847 11 1.64025 11 1.64205 11C1.64384 11 1.64566 11 1.64748 11C1.64931 11 1.65116 11 1.65302 11C1.65489 11 1.65677 11 1.65866 11C1.66056 11 1.66247 11 1.6644 11C1.66633 11 1.66827 11 1.67023 11C1.6722 11 1.67417 11 1.67617 11C1.67816 11 1.68017 11 1.6822 11C1.68423 11 1.68627 11 1.68833 11C1.69039 11 1.69247 11 1.69456 11C1.69665 11 1.69876 11 1.70089 11C1.70301 11 1.70516 11 1.70731 11C1.70947 11 1.71165 11 1.71384 11C1.71603 11 1.71823 11 1.72046 11C1.72268 11 1.72492 11 1.72717 11C1.72943 11 1.7317 11 1.73399 11C1.73628 11 1.73858 11 1.7409 11C1.74322 11 1.74556 11 1.74791 11C1.75026 11 1.75263 11 1.75501 11C1.7574 11 1.7598 11 1.76221 11C1.76463 11 1.76706 11 1.76951 11C1.77196 11 1.77442 11 1.7769 11C1.77939 11 1.78188 11 1.78439 11C1.78691 11 1.78944 11 1.79198 11C1.79453 11 1.79709 11 1.79966 11C1.80224 11 1.80483 11 1.80744 11C1.81005 11 1.81267 11 1.81531 11C1.81795 11 1.82061 11 1.82328 11C1.82595 11 1.82864 11 1.83134 11C1.83404 11 1.83676 11 1.8395 11C1.84223 11 1.84498 11 1.84775 11C1.85052 11 1.8533 11 1.8561 11C1.85889 11 1.86171 11 1.86454 11C1.86737 11 1.87021 11 1.87307 11C1.87593 11 1.87881 11 1.8817 11C1.88459 11 1.8875 11 1.89043 11C1.89335 11 1.89629 11 1.89924 11C1.9022 11 1.90517 11 1.90815 11C1.91114 11 1.91414 11 1.91716 11C1.92017 11 1.92321 11 1.92625 11C1.9293 11 1.93236 11 1.93544 11C1.93852 11 1.94162 11 1.94473 11C1.94784 11 1.95096 11 1.9541 11C1.95724 11 1.9604 11 1.96357 11C1.96674 11 1.96993 11 1.97313 11C1.97633 11 1.97955 11 1.98278 11C1.98602 11 1.98927 11 1.99253 11C1.99579 11 1.99907 11 2.00237 11C2.00566 11 2.00897 11 2.0123 11C2.01562 11 2.01896 11 2.02232 11C2.02567 11 2.02904 11 2.03243 11C2.03581 11 2.03921 11 2.04263 11C2.04605 11 2.04948 11 2.05292 11C2.05637 11 2.05983 11 2.06331 11C2.06679 11 2.07028 11 2.07379 11C2.07729 11 2.08082 11 2.08435 11C2.08789 11 2.09144 11 2.09501 11C2.09858 11 2.10216 11 2.10576 11C2.10935 11 2.11297 11 2.11659 11C2.12022 11 2.12386 11 2.12752 11C2.13118 11 2.13485 11 2.13854 11C2.14223 11 2.14593 11 2.14965 11C2.15336 11 2.1571 11 2.16084 11C2.16459 11 2.16835 11 2.17213 11C2.17591 11 2.1797 11 2.1835 11C2.18731 11 2.19113 11 2.19497 11C2.1988 11 2.20266 11 2.20652 11C2.21039 11 2.21427 11 2.21816 11C2.22206 11 2.22597 11 2.22989 11C2.23382 11 2.23776 11 2.24171 11C2.24567 11 2.24963 11 2.25362 11C2.2576 11 2.2616 11 2.26561 11C2.26963 11 2.27365 11 2.27769 11C2.28174 11 2.28579 11 2.28987 11C2.29394 11 2.29802 11 2.30212 11C2.30622 11 2.31034 11 2.31447 11C2.3186 11 2.32274 11 2.3269 11C2.33106 11 2.33523 11 2.33942 11C2.34361 11 2.34781 11 2.35203 11C2.35624 11 2.36047 11 2.36472 11C2.36896 11 2.37322 11 2.3775 11C2.38177 11 2.38606 11 2.39036 11C2.39467 11 2.39898 11 2.40332 11C2.40765 11 2.41199 11 2.41635 11C2.42072 11 2.42509 11 2.42948 11C2.43387 11 2.43827 11 2.44269 11C2.44711 11 2.45154 11 2.45598 11C2.46043 11 2.46489 11 2.46937 11C2.47384 11 2.47833 11 2.48283 11C2.48733 11 2.49185 11 2.49638 11C2.50091 11 2.50546 11 2.51002 11C2.51458 11 2.51915 11 2.52374 11C2.52833 11 2.53293 11 2.53755 11C2.54216 11 2.54679 11 2.55144 11C2.55608 11 2.56074 11 2.56541 11C2.57008 11 2.57477 11 2.57947 11C2.58417 11 2.58888 11 2.59361 11C2.59834 11 2.60308 11 2.60784 11C2.61259 11 2.61736 11 2.62215 11C2.62693 11 2.63173 11 2.63654 11C2.64135 11 2.64618 11 2.65102 11C2.65586 11 2.66071 11 2.66558 11C2.67044 11 2.67533 11 2.68022 11C2.68511 11 2.69002 11 2.69495 11C2.69987 11 2.7048 11 2.70975 11C2.7147 11 2.71967 11 2.72464 11C2.72962 11 2.73461 11 2.73962 11C2.74462 11 2.74964 11 2.75467 11C2.7597 11 2.76475 11 2.76981 11C2.77487 11 2.77994 11 2.78503 11C2.79012 11 2.79522 11 2.80033 11C2.80544 11 2.81057 11 2.81571 11C2.82085 11 2.82601 11 2.83118 11C2.83634 11 2.84153 11 2.84672 11C2.85192 11 2.85712 11 2.86235 11C2.86757 11 2.8728 11 2.87805 11C2.8833 11 2.88856 11 2.89384 11C2.89912 11 2.90441 11 2.90971 11C2.91501 11 2.92033 11 2.92566 11C2.93099 11 2.93633 11 2.94169 11C2.94704 11 2.95241 11 2.95779 11C2.96318 11 2.96857 11 2.97398 11C2.97939 11 2.98482 11 2.99025 11C2.99569 11 3.00114 11 3.0066 11C3.01206 11 3.01754 11 3.02303 11C3.02852 11 3.03402 11 3.03953 11C3.04505 11 3.05058 11 3.05612 11C3.06166 11 3.06721 11 3.07278 11C3.07835 11 3.08393 11 3.08953 11C3.09512 11 3.10073 11 3.10635 11C3.11197 11 3.1176 11 3.12325 11C3.12889 11 3.13455 11 3.14023 11C3.1459 11 3.15158 11 3.15728 11C3.16298 11 3.16869 11 3.17442 11C3.18014 11 3.18588 11 3.19163 11C3.19738 11 3.20314 11 3.20892 11C3.2147 11 3.22049 11 3.22629 11C3.23209 11 3.2379 11 3.24373 11C3.24956 11 3.2554 11 3.26125 11C3.26711 11 3.27297 11 3.27885 11C3.28473 11 3.29062 11 3.29653 11C3.30243 11 3.30835 11 3.31428 11C3.32021 11 3.32615 11 3.33211 11C3.33806 11 3.34403 11 3.35001 11C3.35599 11 3.36199 11 3.36799 11C3.374 11 3.38002 11 3.38605 11C3.39208 11 3.39813 11 3.40418 11C3.41024 11 3.41631 11 3.42239 11C3.42848 11 3.43457 11 3.44068 11C3.44678 11 3.4529 11 3.45904 11C3.46517 11 3.47131 11 3.47747 11C3.48363 11 3.4898 11 3.49598 11C3.50216 11 3.50836 11 3.51456 11C3.52077 11 3.52699 11 3.53322 11C3.53946 11 3.5457 11 3.55196 11C3.55821 11 3.56448 11 3.57077 11C3.57705 11 3.58334 11 3.58965 11C3.59595 11 3.60227 11 3.6086 11C3.61493 11 3.62128 11 3.62763 11C3.63399 11 3.64036 11 3.64674 11C3.65312 11 3.65951 11 3.66592 11C3.67232 11 3.67874 11 3.68517 11C3.69159 11 3.69804 11 3.70449 11C3.71094 11 3.71741 11 3.72389 11C3.73036 11 3.73685 11 3.74336 11C3.74986 11 3.75637 11 3.7629 11C3.76943 11 3.77596 11 3.78251 11C3.78906 11 3.79563 11 3.8022 11C3.80878 11 3.81536 11 3.82196 11C3.82856 11 3.83517 11 3.84179 11C3.84842 11 3.85505 11 3.8617 11C3.86834 11 3.875 11 3.88167 11C3.88834 11 3.89503 11 3.90172 11C3.90841 11 3.91512 11 3.92184 11C3.92856 11 3.93529 11 3.94203 11C3.94877 11 3.95552 11 3.96229 11C3.96905 11 3.97583 11 3.98262 11C3.98941 11 3.99621 11 4.00302 11C4.00984 11 4.01666 11 4.0235 11C4.03033 11 4.03718 11 4.04404 11C4.0509 11 4.05777 11 4.06465 11C4.07154 11 4.07843 11 4.08534 11C4.09224 11 4.09916 11 4.10609 11C4.11302 11 4.11996 11 4.12692 11C4.13387 11 4.14083 11 4.14781 11C4.15479 11 4.16177 11 4.16877 11C4.17577 11 4.18278 11 4.18981 11C4.19683 11 4.20386 11 4.21091 11C4.21795 11 4.22501 11 4.23208 11C4.23915 11 4.24623 11 4.25332 11C4.26041 11 4.26751 11 4.27462 11C4.28174 11 4.28886 11 4.296 11C4.30314 11 4.31029 11 4.31745 11C4.32461 11 4.33178 11 4.33896 11C4.34614 11 4.35333 11 4.36054 11C4.36774 11 4.37496 11 4.38219 11C4.38942 11 4.39665 11 4.4039 11C4.41115 11 4.41842 11 4.42569 11C4.43296 11 4.44024 11 4.44754 11C4.45483 11 4.46214 11 4.46946 11C4.47678 11 4.4841 11 4.49144 11C4.49878 11 4.50613 11 4.5135 11C4.52086 11 4.52823 11 4.53562 11C4.543 11 4.55039 11 4.5578 11C4.56521 11 4.57262 11 4.58005 11C4.58748 11 4.59492 11 4.60237 11C4.60982 11 4.61728 11 4.62476 11C4.63223 11 4.63971 11 4.64721 11C4.6547 11 4.66221 11 4.66972 11C4.67724 11 4.68477 11 4.6923 11C4.69984 11 4.70739 11 4.71495 11C4.72251 11 4.73008 11 4.73766 11C4.74524 11 4.75284 11 4.76044 11C4.76804 11 4.77566 11 4.78328 11C4.79091 11 4.79854 11 4.80619 11C4.81384 11 4.82149 11 4.82916 11C4.83683 11 4.84451 11 4.8522 11C4.85989 11 4.86759 11 4.8753 11C4.88301 11 4.89073 11 4.89846 11C4.90619 11 4.91394 11 4.92169 11C4.92944 11 4.93721 11 4.94498 11C4.95276 11 4.96054 11 4.96834 11C4.97613 11 4.98394 11 4.99176 11C4.99957 11 5.0074 11 5.01524 11C5.02308 11 5.03092 11 5.03878 11C5.04664 11 5.05451 11 5.06239 11C5.07027 11 5.07816 11 5.08606 11C5.09396 11 5.10188 11 5.1098 11C5.11772 11 5.12565 11 5.13359 11C5.14154 11 5.14949 11 5.15745 11C5.16542 11 5.17339 11 5.18137 11C5.18936 11 5.19735 11 5.20536 11C5.21336 11 5.22138 11 5.2294 11C5.23743 11 5.24546 11 5.25351 11C5.26155 11 5.26961 11 5.27768 11C5.28574 11 5.29382 11 5.3019 11C5.30999 11 5.31809 11 5.32619 11C5.3343 11 5.34242 11 5.35055 11C5.35867 11 5.36681 11 5.37496 11C5.38311 11 5.39126 11 5.39943 11C5.4076 11 5.41578 11 5.42396 11C5.43215 11 5.44035 11 5.44856 11C5.45677 11 5.46498 11 5.47321 11C5.48144 11 5.48968 11 5.49793 11C5.50617 11 5.51443 11 5.5227 11C5.53097 11 5.53925 11 5.54753 11C5.55582 11 5.56412 11 5.57243 11C5.58073 11 5.58905 11 5.59738 11C5.60571 11 5.61404 11 5.62239 11C5.63074 11 5.6391 11 5.64746 11C5.65583 11 5.66421 11 5.67259 11C5.68098 11 5.68937 11 5.69778 11C5.70619 11 5.7146 11 5.72303 11C5.73145 11 5.73989 11 5.74833 11C5.75678 11 5.76523 11 5.7737 11C5.78216 11 5.79063 11 5.79912 11C5.8076 11 5.81609 11 5.8246 11C5.8331 11 5.84161 11 5.85013 11C5.85866 11 5.86719 11 5.87573 11C5.88427 11 5.89282 11 5.90138 11C5.90994 11 5.91851 11 5.92709 11C5.93567 11 5.94426 11 5.95286 11C5.96146 11 5.97006 11 5.97868 11C5.9873 11 5.99593 11 6.00456 11C6.0132 11 6.02184 11 6.0305 11C6.03916 11 6.04782 11 6.05649 11C6.06517 11 6.07385 11 6.08254 11C6.09124 11 6.09994 11 6.10865 11C6.11736 11 6.12608 11 6.13481 11C6.14354 11 6.15228 11 6.16103 11C6.16978 11 6.17854 11 6.1873 11C6.19607 11 6.20485 11 6.21363 11C6.22242 11 6.23121 11 6.24002 11C6.24882 11 6.25763 11 6.26645 11C6.27528 11 6.28411 11 6.29295 11C6.30179 11 6.31064 11 6.3195 11C6.32836 11 6.33723 11 6.3461 11C6.35498 11 6.36387 11 6.37276 11C6.38166 11 6.39056 11 6.39947 11C6.40839 11 6.41731 11 6.42624 11C6.43517 11 6.44411 11 6.45306 11C6.46201 11 6.47097 11 6.47994 11C6.4889 11 6.49788 11 6.50686 11C6.51585 11 6.52484 11 6.53385 11C6.54285 11 6.55186 11 6.56088 11C6.5699 11 6.57893 11 6.58797 11C6.59701 11 6.60606 11 6.61511 11C6.62417 11 6.63323 11 6.64231 11C6.65138 11 6.66046 11 6.66955 11C6.67864 11 6.68774 11 6.69685 11C6.70596 11 6.71508 11 6.7242 11C6.73333 11 6.74247 11 6.75161 11C6.76075 11 6.7699 11 6.77906 11C6.78823 11 6.79739 11 6.80657 11C6.81575 11 6.82494 11 6.83413 11C6.84333 11 6.85253 11 6.86174 11C6.87096 11 6.88018 11 6.88941 11C6.89864 11 6.90787 11 6.91712 11C6.92637 11 6.93562 11 6.94489 11C6.95415 11 6.96342 11 6.9727 11C6.98198 11 6.99127 11 7.00057 11C7.00987 11 7.01917 11 7.02849 11C7.0378 11 7.04712 11 7.05646 11C7.06579 11 7.07513 11 7.08447 11C7.09382 11 7.10318 11 7.11254 11C7.12191 11 7.13128 11 7.14066 11C7.15004 11 7.15943 11 7.16883 11C7.17823 11 7.18763 11 7.19705 11C7.20646 11 7.21588 11 7.22531 11C7.23474 11 7.24418 11 7.25363 11C7.26308 11 7.27253 11 7.28199 11C7.29146 11 7.30093 11 7.31041 11C7.31989 11 7.32938 11 7.33887 11C7.34837 11 7.35787 11 7.36738 11C7.3769 11 7.38642 11 7.39595 11C7.40547 11 7.41501 11 7.42455 11C7.4341 11 7.44365 11 7.45321 11C7.46277 11 7.47234 11 7.48192 11C7.49149 11 7.50108 11 7.51067 11C7.52026 11 7.52986 11 7.53947 11C7.54908 11 7.55869 11 7.56832 11C7.57794 11 7.58757 11 7.59721 11C7.60685 11 7.6165 11 7.62615 11C7.63581 11 7.64547 11 7.65514 11C7.66481 11 7.67449 11 7.68418 11C7.69387 11 7.70356 11 7.71326 11C7.72296 11 7.73267 11 7.74239 11C7.75211 11 7.76184 11 7.77157 11C7.7813 11 7.79104 11 7.80079 11C7.81054 11 7.82029 11 7.83006 11C7.83982 11 7.84959 11 7.85937 11C7.86915 11 7.87894 11 7.88873 11C7.89853 11 7.90833 11 7.91814 11C7.92795 11 7.93776 11 7.94759 11C7.95741 11 7.96724 11 7.97708 11C7.98692 11 7.99677 11 8.00662 11C8.01648 11 8.02634 11 8.03621 11C8.04608 11 8.05596 11 8.06584 11C8.07572 11 8.08562 11 8.09552 11C8.10541 11 8.11532 11 8.12524 11C8.13515 11 8.14507 11 8.155 11C8.16493 11 8.17486 11 8.18481 11C8.19475 11 8.2047 11 8.21466 11C8.22462 11 8.23458 11 8.24455 11C8.25453 11 8.26451 11 8.27449 11C8.28448 11 8.29447 11 8.30448 11C8.31448 11 8.32449 11 8.3345 11C8.34452 11 8.35454 11 8.36457 11C8.3746 11 8.38464 11 8.39468 11C8.40473 11 8.41478 11 8.42484 11C8.4349 11 8.44496 11 8.45503 11C8.46511 11 8.47519 11 8.48527 11C8.49536 11 8.50546 11 8.51556 11C8.52566 11 8.53577 11 8.54588 11C8.556 11 8.56612 11 8.57625 11C8.58638 11 8.59651 11 8.60665 11C8.6168 11 8.62695 11 8.6371 11C8.64726 11 8.65742 11 8.66759 11C8.67777 11 8.68794 11 8.69813 11C8.70831 11 8.7185 11 8.7287 11C8.7389 11 8.7491 11 8.75932 11C8.76953 11 8.77975 11 8.78997 11C8.8002 11 8.81043 11 8.82067 11C8.83091 11 8.84115 11 8.8514 11C8.86166 11 8.87191 11 8.88218 11C8.89245 11 8.90272 11 8.913 11C8.92328 11 8.93356 11 8.94385 11C8.95415 11 8.96445 11 8.97475 11C8.98506 11 8.99537 11 9.00569 11C9.01601 11 9.02633 11 9.03666 11C9.047 11 9.05733 11 9.06768 11C9.07802 11 9.08838 11 9.09873 11C9.10909 11 9.11946 11 9.12983 11C9.1402 11 9.15058 11 9.16096 11C9.17134 11 9.18173 11 9.19213 11C9.20253 11 9.21293 11 9.22334 11C9.23375 11 9.24417 11 9.25459 11C9.26501 11 9.27544 11 9.28588 11C9.29631 11 9.30675 11 9.3172 11C9.32765 11 9.3381 11 9.34856 11C9.35902 11 9.36949 11 9.37996 11C9.39044 11 9.40092 11 9.4114 11C9.42189 11 9.43238 11 9.44288 11C9.45337 11 9.46388 11 9.47439 11C9.4849 11 9.49542 11 9.50594 11C9.51646 11 9.52699 11 9.53752 11C9.54806 11 9.5586 11 9.56915 11C9.57969 11 9.59025 11 9.60081 11C9.61137 11 9.62193 11 9.6325 11C9.64307 11 9.65365 11 9.66424 11C9.67482 11 9.68541 11 9.696 11C9.7066 11 9.7172 11 9.72781 11C9.73842 11 9.74903 11 9.75965 11C9.77027 11 9.78089 11 9.79153 11C9.80216 11 9.81279 11 9.82344 11C9.83408 11 9.84473 11 9.85538 11C9.86604 11 9.8767 11 9.88737 11C9.89803 11 9.9087 11 9.91938 11C9.93006 11 9.94074 11 9.95143 11C9.96212 11 9.97282 11 9.98352 11C9.99422 11 10.0049 11 10.0156 11C10.0264 11 10.0371 11 10.0478 11C10.0585 11 10.0692 11 10.08 11C10.0907 11 10.1015 11 10.1122 11C10.123 11 10.1337 11 10.1445 11C10.1552 11 10.166 11 10.1768 11C10.1875 11 10.1983 11 10.2091 11C10.2199 11 10.2306 11 10.2414 11C10.2522 11 10.263 11 10.2738 11C10.2846 11 10.2954 11 10.3063 11C10.3171 11 10.3279 11 10.3387 11C10.3495 11 10.3604 11 10.3712 11C10.382 11 10.3929 11 10.4037 11C10.4146 11 10.4254 11 10.4363 11C10.4471 11 10.458 11 10.4689 11C10.4797 11 10.4906 11 10.5015 11C10.5124 11 10.5232 11 10.5341 11C10.545 11 10.5559 11 10.5668 11C10.5777 11 10.5886 11 10.5995 11C10.6104 11 10.6213 11 10.6323 11C10.6432 11 10.6541 11 10.665 11C10.676 11 10.6869 11 10.6979 11C10.7088 11 10.7197 11 10.7307 11C10.7416 11 10.7526 11 10.7636 11C10.7745 11 10.7855 11 10.7965 11C10.8074 11 10.8184 11 10.8294 11C10.8404 11 10.8514 11 10.8623 11C10.8733 11 10.8843 11 10.8953 11C10.9063 11 10.9173 11 10.9284 11C10.9394 11 10.9504 11 10.9614 11C10.9724 11 10.9835 11 10.9945 11C11.0055 11 11.0166 11 11.0276 11C11.0386 11 11.0497 11 11.0607 11C11.0718 11 11.0828 11 11.0939 11C11.105 11 11.116 11 11.1271 11C11.1382 11 11.1492 11 11.1603 11C11.1714 11 11.1825 11 11.1936 11C11.2047 11 11.2158 11 11.2269 11C11.238 11 11.2491 11 11.2602 11C11.2713 11 11.2824 11 11.2935 11C11.3046 11 11.3157 11 11.3269 11C11.338 11 11.3491 11 11.3603 11C11.3714 11 11.3825 11 11.3937 11C11.4048 11 11.416 11 11.4271 11C11.4383 11 11.4495 11 11.4606 11C11.4718 11 11.483 11 11.4941 11C11.5053 11 11.5165 11 11.5277 11C11.5388 11 11.55 11 11.5612 11C11.5724 11 11.5836 11 11.5948 11C11.606 11 11.6172 11 11.6284 11C11.6396 11 11.6508 11 11.662 11C11.6733 11 11.6845 11 11.6957 11C11.7069 11 11.7182 11 11.7294 11C11.7406 11 11.7519 11 11.7631 11C11.7744 11 11.7856 11 11.7969 11C11.8081 11 11.8194 11 11.8306 11C11.8419 11 11.8531 11 11.8644 11C11.8757 11 11.887 11 11.8982 11C11.9095 11 11.9208 11 11.9321 11C11.9434 11 11.9546 11 11.9659 11C11.9772 11 11.9885 11 11.9998 11V8C11.9885 8 11.9772 8 11.9659 8C11.9546 8 11.9434 8 11.9321 8C11.9208 8 11.9095 8 11.8982 8C11.887 8 11.8757 8 11.8644 8C11.8531 8 11.8419 8 11.8306 8C11.8194 8 11.8081 8 11.7969 8C11.7856 8 11.7744 8 11.7631 8C11.7519 8 11.7406 8 11.7294 8C11.7182 8 11.7069 8 11.6957 8C11.6845 8 11.6733 8 11.662 8C11.6508 8 11.6396 8 11.6284 8C11.6172 8 11.606 8 11.5948 8C11.5836 8 11.5724 8 11.5612 8C11.55 8 11.5388 8 11.5277 8C11.5165 8 11.5053 8 11.4941 8C11.483 8 11.4718 8 11.4606 8C11.4495 8 11.4383 8 11.4271 8C11.416 8 11.4048 8 11.3937 8C11.3825 8 11.3714 8 11.3603 8C11.3491 8 11.338 8 11.3269 8C11.3157 8 11.3046 8 11.2935 8C11.2824 8 11.2713 8 11.2602 8C11.2491 8 11.238 8 11.2269 8C11.2158 8 11.2047 8 11.1936 8C11.1825 8 11.1714 8 11.1603 8C11.1492 8 11.1382 8 11.1271 8C11.116 8 11.105 8 11.0939 8C11.0828 8 11.0718 8 11.0607 8C11.0497 8 11.0386 8 11.0276 8C11.0166 8 11.0055 8 10.9945 8C10.9835 8 10.9724 8 10.9614 8C10.9504 8 10.9394 8 10.9284 8C10.9173 8 10.9063 8 10.8953 8C10.8843 8 10.8733 8 10.8623 8C10.8514 8 10.8404 8 10.8294 8C10.8184 8 10.8074 8 10.7965 8C10.7855 8 10.7745 8 10.7636 8C10.7526 8 10.7416 8 10.7307 8C10.7197 8 10.7088 8 10.6979 8C10.6869 8 10.676 8 10.665 8C10.6541 8 10.6432 8 10.6323 8C10.6213 8 10.6104 8 10.5995 8C10.5886 8 10.5777 8 10.5668 8C10.5559 8 10.545 8 10.5341 8C10.5232 8 10.5124 8 10.5015 8C10.4906 8 10.4797 8 10.4689 8C10.458 8 10.4471 8 10.4363 8C10.4254 8 10.4146 8 10.4037 8C10.3929 8 10.382 8 10.3712 8C10.3604 8 10.3495 8 10.3387 8C10.3279 8 10.3171 8 10.3063 8C10.2954 8 10.2846 8 10.2738 8C10.263 8 10.2522 8 10.2414 8C10.2306 8 10.2199 8 10.2091 8C10.1983 8 10.1875 8 10.1768 8C10.166 8 10.1552 8 10.1445 8C10.1337 8 10.123 8 10.1122 8C10.1015 8 10.0907 8 10.08 8C10.0692 8 10.0585 8 10.0478 8C10.0371 8 10.0264 8 10.0156 8C10.0049 8 9.99422 8 9.98352 8C9.97282 8 9.96212 8 9.95143 8C9.94074 8 9.93006 8 9.91938 8C9.9087 8 9.89803 8 9.88737 8C9.8767 8 9.86604 8 9.85538 8C9.84473 8 9.83408 8 9.82344 8C9.81279 8 9.80216 8 9.79153 8C9.78089 8 9.77027 8 9.75965 8C9.74903 8 9.73842 8 9.72781 8C9.7172 8 9.7066 8 9.696 8C9.68541 8 9.67482 8 9.66424 8C9.65365 8 9.64307 8 9.6325 8C9.62193 8 9.61137 8 9.60081 8C9.59025 8 9.57969 8 9.56915 8C9.5586 8 9.54806 8 9.53752 8C9.52699 8 9.51646 8 9.50594 8C9.49542 8 9.4849 8 9.47439 8C9.46388 8 9.45337 8 9.44288 8C9.43238 8 9.42189 8 9.4114 8C9.40092 8 9.39044 8 9.37996 8C9.36949 8 9.35902 8 9.34856 8C9.3381 8 9.32765 8 9.3172 8C9.30675 8 9.29631 8 9.28588 8C9.27544 8 9.26501 8 9.25459 8C9.24417 8 9.23375 8 9.22334 8C9.21293 8 9.20253 8 9.19213 8C9.18173 8 9.17134 8 9.16096 8C9.15058 8 9.1402 8 9.12983 8C9.11946 8 9.10909 8 9.09873 8C9.08838 8 9.07802 8 9.06768 8C9.05733 8 9.047 8 9.03666 8C9.02633 8 9.01601 8 9.00569 8C8.99537 8 8.98506 8 8.97475 8C8.96445 8 8.95415 8 8.94385 8C8.93356 8 8.92328 8 8.913 8C8.90272 8 8.89245 8 8.88218 8C8.87191 8 8.86166 8 8.8514 8C8.84115 8 8.83091 8 8.82067 8C8.81043 8 8.8002 8 8.78997 8C8.77975 8 8.76953 8 8.75932 8C8.7491 8 8.7389 8 8.7287 8C8.7185 8 8.70831 8 8.69813 8C8.68794 8 8.67777 8 8.66759 8C8.65742 8 8.64726 8 8.6371 8C8.62695 8 8.6168 8 8.60665 8C8.59651 8 8.58638 8 8.57625 8C8.56612 8 8.556 8 8.54588 8C8.53577 8 8.52566 8 8.51556 8C8.50546 8 8.49536 8 8.48527 8C8.47519 8 8.46511 8 8.45503 8C8.44496 8 8.4349 8 8.42484 8C8.41478 8 8.40473 8 8.39468 8C8.38464 8 8.3746 8 8.36457 8C8.35454 8 8.34452 8 8.3345 8C8.32449 8 8.31448 8 8.30448 8C8.29447 8 8.28448 8 8.27449 8C8.26451 8 8.25453 8 8.24455 8C8.23458 8 8.22462 8 8.21466 8C8.2047 8 8.19475 8 8.18481 8C8.17486 8 8.16493 8 8.155 8C8.14507 8 8.13515 8 8.12524 8C8.11532 8 8.10541 8 8.09552 8C8.08562 8 8.07572 8 8.06584 8C8.05596 8 8.04608 8 8.03621 8C8.02634 8 8.01648 8 8.00662 8C7.99677 8 7.98692 8 7.97708 8C7.96724 8 7.95741 8 7.94759 8C7.93776 8 7.92795 8 7.91814 8C7.90833 8 7.89853 8 7.88873 8C7.87894 8 7.86915 8 7.85937 8C7.84959 8 7.83982 8 7.83006 8C7.82029 8 7.81054 8 7.80079 8C7.79104 8 7.7813 8 7.77157 8C7.76184 8 7.75211 8 7.74239 8C7.73267 8 7.72296 8 7.71326 8C7.70356 8 7.69387 8 7.68418 8C7.67449 8 7.66481 8 7.65514 8C7.64547 8 7.63581 8 7.62615 8C7.6165 8 7.60685 8 7.59721 8C7.58757 8 7.57794 8 7.56832 8C7.55869 8 7.54908 8 7.53947 8C7.52986 8 7.52026 8 7.51067 8C7.50108 8 7.49149 8 7.48192 8C7.47234 8 7.46277 8 7.45321 8C7.44365 8 7.4341 8 7.42455 8C7.41501 8 7.40547 8 7.39595 8C7.38642 8 7.3769 8 7.36738 8C7.35787 8 7.34837 8 7.33887 8C7.32938 8 7.31989 8 7.31041 8C7.30093 8 7.29146 8 7.28199 8C7.27253 8 7.26308 8 7.25363 8C7.24418 8 7.23474 8 7.22531 8C7.21588 8 7.20646 8 7.19705 8C7.18763 8 7.17823 8 7.16883 8C7.15943 8 7.15004 8 7.14066 8C7.13128 8 7.12191 8 7.11254 8C7.10318 8 7.09382 8 7.08447 8C7.07513 8 7.06579 8 7.05646 8C7.04712 8 7.0378 8 7.02849 8C7.01917 8 7.00987 8 7.00057 8C6.99127 8 6.98198 8 6.9727 8C6.96342 8 6.95415 8 6.94489 8C6.93562 8 6.92637 8 6.91712 8C6.90787 8 6.89864 8 6.88941 8C6.88018 8 6.87096 8 6.86174 8C6.85253 8 6.84333 8 6.83413 8C6.82494 8 6.81575 8 6.80657 8C6.79739 8 6.78823 8 6.77906 8C6.7699 8 6.76075 8 6.75161 8C6.74247 8 6.73333 8 6.7242 8C6.71508 8 6.70596 8 6.69685 8C6.68774 8 6.67864 8 6.66955 8C6.66046 8 6.65138 8 6.64231 8C6.63323 8 6.62417 8 6.61511 8C6.60606 8 6.59701 8 6.58797 8C6.57893 8 6.5699 8 6.56088 8C6.55186 8 6.54285 8 6.53385 8C6.52484 8 6.51585 8 6.50686 8C6.49788 8 6.4889 8 6.47994 8C6.47097 8 6.46201 8 6.45306 8C6.44411 8 6.43517 8 6.42624 8C6.41731 8 6.40839 8 6.39947 8C6.39056 8 6.38166 8 6.37276 8C6.36387 8 6.35498 8 6.3461 8C6.33723 8 6.32836 8 6.3195 8C6.31064 8 6.30179 8 6.29295 8C6.28411 8 6.27528 8 6.26645 8C6.25763 8 6.24882 8 6.24002 8C6.23121 8 6.22242 8 6.21363 8C6.20485 8 6.19607 8 6.1873 8C6.17854 8 6.16978 8 6.16103 8C6.15228 8 6.14354 8 6.13481 8C6.12608 8 6.11736 8 6.10865 8C6.09994 8 6.09124 8 6.08254 8C6.07385 8 6.06517 8 6.05649 8C6.04782 8 6.03916 8 6.0305 8C6.02184 8 6.0132 8 6.00456 8C5.99593 8 5.9873 8 5.97868 8C5.97006 8 5.96146 8 5.95286 8C5.94426 8 5.93567 8 5.92709 8C5.91851 8 5.90994 8 5.90138 8C5.89282 8 5.88427 8 5.87573 8C5.86719 8 5.85866 8 5.85013 8C5.84161 8 5.8331 8 5.8246 8C5.81609 8 5.8076 8 5.79912 8C5.79063 8 5.78216 8 5.7737 8C5.76523 8 5.75678 8 5.74833 8C5.73989 8 5.73145 8 5.72303 8C5.7146 8 5.70619 8 5.69778 8C5.68937 8 5.68098 8 5.67259 8C5.66421 8 5.65583 8 5.64746 8C5.6391 8 5.63074 8 5.62239 8C5.61404 8 5.60571 8 5.59738 8C5.58905 8 5.58073 8 5.57243 8C5.56412 8 5.55582 8 5.54753 8C5.53925 8 5.53097 8 5.5227 8C5.51443 8 5.50617 8 5.49793 8C5.48968 8 5.48144 8 5.47321 8C5.46498 8 5.45677 8 5.44856 8C5.44035 8 5.43215 8 5.42396 8C5.41578 8 5.4076 8 5.39943 8C5.39126 8 5.38311 8 5.37496 8C5.36681 8 5.35867 8 5.35055 8C5.34242 8 5.3343 8 5.32619 8C5.31809 8 5.30999 8 5.3019 8C5.29382 8 5.28574 8 5.27768 8C5.26961 8 5.26155 8 5.25351 8C5.24546 8 5.23743 8 5.2294 8C5.22138 8 5.21336 8 5.20536 8C5.19735 8 5.18936 8 5.18137 8C5.17339 8 5.16542 8 5.15745 8C5.14949 8 5.14154 8 5.13359 8C5.12565 8 5.11772 8 5.1098 8C5.10188 8 5.09396 8 5.08606 8C5.07816 8 5.07027 8 5.06239 8C5.05451 8 5.04664 8 5.03878 8C5.03092 8 5.02308 8 5.01524 8C5.0074 8 4.99957 8 4.99176 8C4.98394 8 4.97613 8 4.96834 8C4.96054 8 4.95276 8 4.94498 8C4.93721 8 4.92944 8 4.92169 8C4.91394 8 4.90619 8 4.89846 8C4.89073 8 4.88301 8 4.8753 8C4.86759 8 4.85989 8 4.8522 8C4.84451 8 4.83683 8 4.82916 8C4.82149 8 4.81384 8 4.80619 8C4.79854 8 4.79091 8 4.78328 8C4.77566 8 4.76804 8 4.76044 8C4.75284 8 4.74524 8 4.73766 8C4.73008 8 4.72251 8 4.71495 8C4.70739 8 4.69984 8 4.6923 8C4.68477 8 4.67724 8 4.66972 8C4.66221 8 4.6547 8 4.64721 8C4.63971 8 4.63223 8 4.62476 8C4.61728 8 4.60982 8 4.60237 8C4.59492 8 4.58748 8 4.58005 8C4.57262 8 4.56521 8 4.5578 8C4.55039 8 4.543 8 4.53562 8C4.52823 8 4.52086 8 4.5135 8C4.50613 8 4.49878 8 4.49144 8C4.4841 8 4.47678 8 4.46946 8C4.46214 8 4.45483 8 4.44754 8C4.44024 8 4.43296 8 4.42569 8C4.41842 8 4.41115 8 4.4039 8C4.39665 8 4.38942 8 4.38219 8C4.37496 8 4.36774 8 4.36054 8C4.35333 8 4.34614 8 4.33896 8C4.33178 8 4.32461 8 4.31745 8C4.31029 8 4.30314 8 4.296 8C4.28886 8 4.28174 8 4.27462 8C4.26751 8 4.26041 8 4.25332 8C4.24623 8 4.23915 8 4.23208 8C4.22501 8 4.21795 8 4.21091 8C4.20386 8 4.19683 8 4.18981 8C4.18278 8 4.17577 8 4.16877 8C4.16177 8 4.15479 8 4.14781 8C4.14083 8 4.13387 8 4.12692 8C4.11996 8 4.11302 8 4.10609 8C4.09916 8 4.09224 8 4.08534 8C4.07843 8 4.07154 8 4.06465 8C4.05777 8 4.0509 8 4.04404 8C4.03718 8 4.03033 8 4.0235 8C4.01666 8 4.00984 8 4.00302 8C3.99621 8 3.98941 8 3.98262 8C3.97583 8 3.96905 8 3.96229 8C3.95552 8 3.94877 8 3.94203 8C3.93529 8 3.92856 8 3.92184 8C3.91512 8 3.90841 8 3.90172 8C3.89503 8 3.88834 8 3.88167 8C3.875 8 3.86834 8 3.8617 8C3.85505 8 3.84842 8 3.84179 8C3.83517 8 3.82856 8 3.82196 8C3.81536 8 3.80878 8 3.8022 8C3.79563 8 3.78906 8 3.78251 8C3.77596 8 3.76943 8 3.7629 8C3.75637 8 3.74986 8 3.74336 8C3.73685 8 3.73036 8 3.72389 8C3.71741 8 3.71094 8 3.70449 8C3.69804 8 3.69159 8 3.68517 8C3.67874 8 3.67232 8 3.66592 8C3.65951 8 3.65312 8 3.64674 8C3.64036 8 3.63399 8 3.62763 8C3.62128 8 3.61493 8 3.6086 8C3.60227 8 3.59595 8 3.58965 8C3.58334 8 3.57705 8 3.57077 8C3.56448 8 3.55821 8 3.55196 8C3.5457 8 3.53946 8 3.53322 8C3.52699 8 3.52077 8 3.51456 8C3.50836 8 3.50216 8 3.49598 8C3.4898 8 3.48363 8 3.47747 8C3.47131 8 3.46517 8 3.45904 8C3.4529 8 3.44678 8 3.44068 8C3.43457 8 3.42848 8 3.42239 8C3.41631 8 3.41024 8 3.40418 8C3.39813 8 3.39208 8 3.38605 8C3.38002 8 3.374 8 3.36799 8C3.36199 8 3.35599 8 3.35001 8C3.34403 8 3.33806 8 3.33211 8C3.32615 8 3.32021 8 3.31428 8C3.30835 8 3.30243 8 3.29653 8C3.29062 8 3.28473 8 3.27885 8C3.27297 8 3.26711 8 3.26125 8C3.2554 8 3.24956 8 3.24373 8C3.2379 8 3.23209 8 3.22629 8C3.22049 8 3.2147 8 3.20892 8C3.20314 8 3.19738 8 3.19163 8C3.18588 8 3.18014 8 3.17442 8C3.16869 8 3.16298 8 3.15728 8C3.15158 8 3.1459 8 3.14023 8C3.13455 8 3.12889 8 3.12325 8C3.1176 8 3.11197 8 3.10635 8C3.10073 8 3.09512 8 3.08953 8C3.08393 8 3.07835 8 3.07278 8C3.06721 8 3.06166 8 3.05612 8C3.05058 8 3.04505 8 3.03953 8C3.03402 8 3.02852 8 3.02303 8C3.01754 8 3.01206 8 3.0066 8C3.00114 8 2.99569 8 2.99025 8C2.98482 8 2.97939 8 2.97398 8C2.96857 8 2.96318 8 2.95779 8C2.95241 8 2.94704 8 2.94169 8C2.93633 8 2.93099 8 2.92566 8C2.92033 8 2.91501 8 2.90971 8C2.90441 8 2.89912 8 2.89384 8C2.88856 8 2.8833 8 2.87805 8C2.8728 8 2.86757 8 2.86235 8C2.85712 8 2.85192 8 2.84672 8C2.84153 8 2.83634 8 2.83118 8C2.82601 8 2.82085 8 2.81571 8C2.81057 8 2.80544 8 2.80033 8C2.79522 8 2.79012 8 2.78503 8C2.77994 8 2.77487 8 2.76981 8C2.76475 8 2.7597 8 2.75467 8C2.74964 8 2.74462 8 2.73962 8C2.73461 8 2.72962 8 2.72464 8C2.71967 8 2.7147 8 2.70975 8C2.7048 8 2.69987 8 2.69495 8C2.69002 8 2.68511 8 2.68022 8C2.67533 8 2.67044 8 2.66558 8C2.66071 8 2.65586 8 2.65102 8C2.64618 8 2.64135 8 2.63654 8C2.63173 8 2.62693 8 2.62215 8C2.61736 8 2.61259 8 2.60784 8C2.60308 8 2.59834 8 2.59361 8C2.58888 8 2.58417 8 2.57947 8C2.57477 8 2.57008 8 2.56541 8C2.56074 8 2.55608 8 2.55144 8C2.54679 8 2.54216 8 2.53755 8C2.53293 8 2.52833 8 2.52374 8C2.51915 8 2.51458 8 2.51002 8C2.50546 8 2.50091 8 2.49638 8C2.49185 8 2.48733 8 2.48283 8C2.47833 8 2.47384 8 2.46937 8C2.46489 8 2.46043 8 2.45598 8C2.45154 8 2.44711 8 2.44269 8C2.43827 8 2.43387 8 2.42948 8C2.42509 8 2.42072 8 2.41635 8C2.41199 8 2.40765 8 2.40332 8C2.39898 8 2.39467 8 2.39036 8C2.38606 8 2.38177 8 2.3775 8C2.37322 8 2.36896 8 2.36472 8C2.36047 8 2.35624 8 2.35203 8C2.34781 8 2.34361 8 2.33942 8C2.33523 8 2.33106 8 2.3269 8C2.32274 8 2.3186 8 2.31447 8C2.31034 8 2.30622 8 2.30212 8C2.29802 8 2.29394 8 2.28987 8C2.28579 8 2.28174 8 2.27769 8C2.27365 8 2.26963 8 2.26561 8C2.2616 8 2.2576 8 2.25362 8C2.24963 8 2.24567 8 2.24171 8C2.23776 8 2.23382 8 2.22989 8C2.22597 8 2.22206 8 2.21816 8C2.21427 8 2.21039 8 2.20652 8C2.20266 8 2.1988 8 2.19497 8C2.19113 8 2.18731 8 2.1835 8C2.1797 8 2.17591 8 2.17213 8C2.16835 8 2.16459 8 2.16084 8C2.1571 8 2.15336 8 2.14965 8C2.14593 8 2.14223 8 2.13854 8C2.13485 8 2.13118 8 2.12752 8C2.12386 8 2.12022 8 2.11659 8C2.11297 8 2.10935 8 2.10576 8C2.10216 8 2.09858 8 2.09501 8C2.09144 8 2.08789 8 2.08435 8C2.08082 8 2.07729 8 2.07379 8C2.07028 8 2.06679 8 2.06331 8C2.05983 8 2.05637 8 2.05292 8C2.04948 8 2.04605 8 2.04263 8C2.03921 8 2.03581 8 2.03243 8C2.02904 8 2.02567 8 2.02232 8C2.01896 8 2.01562 8 2.0123 8C2.00897 8 2.00566 8 2.00237 8C1.99907 8 1.99579 8 1.99253 8C1.98927 8 1.98602 8 1.98278 8C1.97955 8 1.97633 8 1.97313 8C1.96993 8 1.96674 8 1.96357 8C1.9604 8 1.95724 8 1.9541 8C1.95096 8 1.94784 8 1.94473 8C1.94162 8 1.93852 8 1.93544 8C1.93236 8 1.9293 8 1.92625 8C1.92321 8 1.92017 8 1.91716 8C1.91414 8 1.91114 8 1.90815 8C1.90517 8 1.9022 8 1.89924 8C1.89629 8 1.89335 8 1.89043 8C1.8875 8 1.88459 8 1.8817 8C1.87881 8 1.87593 8 1.87307 8C1.87021 8 1.86737 8 1.86454 8C1.86171 8 1.85889 8 1.8561 8C1.8533 8 1.85052 8 1.84775 8C1.84498 8 1.84223 8 1.8395 8C1.83676 8 1.83404 8 1.83134 8C1.82864 8 1.82595 8 1.82328 8C1.82061 8 1.81795 8 1.81531 8C1.81267 8 1.81005 8 1.80744 8C1.80483 8 1.80224 8 1.79966 8C1.79709 8 1.79453 8 1.79198 8C1.78944 8 1.78691 8 1.78439 8C1.78188 8 1.77939 8 1.7769 8C1.77442 8 1.77196 8 1.76951 8C1.76706 8 1.76463 8 1.76221 8C1.7598 8 1.7574 8 1.75501 8C1.75263 8 1.75026 8 1.74791 8C1.74556 8 1.74322 8 1.7409 8C1.73858 8 1.73628 8 1.73399 8C1.7317 8 1.72943 8 1.72717 8C1.72492 8 1.72268 8 1.72046 8C1.71823 8 1.71603 8 1.71384 8C1.71165 8 1.70947 8 1.70731 8C1.70516 8 1.70301 8 1.70089 8C1.69876 8 1.69665 8 1.69456 8C1.69247 8 1.69039 8 1.68833 8C1.68627 8 1.68423 8 1.6822 8C1.68017 8 1.67816 8 1.67617 8C1.67417 8 1.6722 8 1.67023 8C1.66827 8 1.66633 8 1.6644 8C1.66247 8 1.66056 8 1.65866 8C1.65677 8 1.65489 8 1.65302 8C1.65116 8 1.64931 8 1.64748 8C1.64566 8 1.64384 8 1.64205 8C1.64025 8 1.63847 8 1.63671 8C1.63494 8 1.63319 8 1.63146 8C1.62973 8 1.62802 8 1.62632 8C1.62463 8 1.62295 8 1.62128 8C1.61962 8 1.61797 8 1.61634 8C1.61471 8 1.6131 8 1.6115 8C1.6099 8 1.60832 8 1.60676 8C1.6052 8 1.60365 8 1.60212 8C1.60059 8 1.59908 8 1.59758 8C1.59609 8 1.59461 8 1.59314 8C1.59168 8 1.59024 8 1.58881 8C1.58738 8 1.58597 8 1.58457 8C1.58318 8 1.5818 8 1.58044 8C1.57908 8 1.57773 8 1.5764 8C1.57508 8 1.57377 8 1.57247 8C1.57118 8 1.5699 8 1.56864 8C1.56738 8 1.56614 8 1.56492 8C1.56369 8 1.56248 8 1.56129 8C1.5601 8 1.55893 8 1.55777 8C1.55661 8 1.55547 8 1.55435 8C1.55322 8 1.55212 8 1.55103 8C1.54994 8 1.54887 8 1.54782 8C1.54676 8 1.54572 8 1.5447 8C1.54368 8 1.54268 8 1.5417 8C1.54071 8 1.53974 8 1.53879 8C1.53784 8 1.5369 8 1.53599 8C1.53507 8 1.53417 8 1.53329 8C1.53241 8 1.53154 8 1.5307 8C1.52985 8 1.52902 8 1.52821 8C1.52739 8 1.5266 8 1.52582 8C1.52504 8 1.52428 8 1.52354 8C1.52279 8 1.52207 8 1.52136 8C1.52065 8 1.51996 8 1.51929 8C1.51861 8 1.51796 8 1.51732 8C1.51668 8 1.51606 8 1.51546 8C1.51485 8 1.51427 8 1.5137 8C1.51313 8 1.51258 8 1.51205 8C1.51151 8 1.511 8 1.5105 8C1.51 8 1.50952 8 1.50906 8C1.50859 8 1.50815 8 1.50772 8C1.50729 8 1.50688 8 1.50649 8C1.5061 8 1.50572 8 1.50537 8C1.50501 8 1.50467 8 1.50435 8C1.50403 8 1.50372 8 1.50344 8C1.50315 8 1.50288 8 1.50263 8C1.50238 8 1.50215 8 1.50194 8C1.50172 8 1.50152 8 1.50135 8C1.50117 8 1.501 8 1.50086 8C1.50072 8 1.50059 8 1.50048 8C1.50038 8 1.50029 8 1.50022 8C1.50014 8 1.50009 8 1.50005 8C1.50002 8 1.5 8 1.5 9.5Z" fill="#003597"/>
</g>
<defs>
<filter id="filter0_d_1_19" x="0.5" y="0.839752" width="26" height="19.3205" filterUnits="userSpaceOnUse" color-interpolation-filters="sRGB">
<feFlood flood-opacity="0" result="BackgroundImageFix"/>
<feColorMatrix in="SourceAlpha" type="matrix" values="0 0 0 0 0 0 0 0 0 0 0 0 0 0 0 0 0 0 127 0" result="hardAlpha"/>
<feOffset dy="1"/>
<feGaussianBlur stdDeviation="0.5"/>
<feComposite in2="hardAlpha" operator="out"/>
<feColorMatrix type="matrix" values="0 0 0 0 0 0 0 0 0 0 0 0 0 0 0 0 0 0 0.25 0"/>
<feBlend mode="normal" in2="BackgroundImageFix" result="effect1_dropShadow_1_19"/>
<feBlend mode="normal" in="SourceGraphic" in2="effect1_dropShadow_1_19" result="shape"/>
</filter>
</defs>
</svg>
